<svg xmlns="http://www.w3.org/2000/svg" width="64" height="64" viewBox="0 0 64 64" fill="none">
  <defs>
    <linearGradient id="tile" x1="0" y1="0" x2="1" y2="1">
      <stop offset="0" stop-color="#002a52"></stop>
      <stop offset="0.55" stop-color="#00111f"></stop>
      <stop offset="1" stop-color="#000d18"></stop>
    </linearGradient>
    <radialGradient id="aurora" cx="78%" cy="16%" r="80%">
      <stop offset="0" stop-color="#99cc33" stop-opacity="0.85"></stop>
      <stop offset="0.4" stop-color="#1d6bb0" stop-opacity="0.45"></stop>
      <stop offset="0.75" stop-color="#1d6bb0" stop-opacity="0"></stop>
    </radialGradient>
    <linearGradient id="mono" x1="0" y1="0" x2="1" y2="1">
      <stop offset="0" stop-color="#c8f06a"></stop>
      <stop offset="1" stop-color="#99cc33"></stop>
    </linearGradient>
  </defs>
  <rect x="2" y="2" width="60" height="60" rx="16" fill="url(#tile)"></rect>
  <rect x="2" y="2" width="60" height="60" rx="16" fill="url(#aurora)"></rect>
  <rect x="2.75" y="2.75" width="58.5" height="58.5" rx="15.25" fill="none" stroke="#ffffff" stroke-opacity="0.16" stroke-width="1.5"></rect>
  
  <g fill="url(#mono)">
    
    <path d="M14 17 h11 a15 15 0 0 1 0 30 H14 Z M22 25 v14 h2.5 a7 7 0 0 0 0 -14 Z" fill-rule="evenodd"></path>
  </g>
  
  <path d="M39 47 L47 17 h4 L59 47 h-7.2 l-1.1 -4.6 h-3.6 L46 47 Z M48.1 27 l-1.2 9 h2.6 Z" fill="url(#mono)" fill-rule="evenodd"></path>
</svg>