<?xml version="1.0" encoding="utf-8"?>
<!-- Generator: Adobe Illustrator 24.0.2, SVG Export Plug-In . SVG Version: 6.00 Build 0)  -->
<svg version="1.1" xmlns="http://www.w3.org/2000/svg" xmlns:xlink="http://www.w3.org/1999/xlink" x="0px" y="0px"
	 viewBox="0 0 326 89" style="enable-background:new 0 0 326 89;" xml:space="preserve">
<style type="text/css">
	.st0{display:none;}
	.st1{display:inline;}
	.st2{fill:#00502F;}
	.st3{fill:#4F2683;}
	.st4{fill:#DB192B;}
</style>
<g id="Layer_1" class="st0">
	<g class="st1">
		<g>
			<path class="st2" d="M52,70.4c-0.3,0.8,1.8-0.6,3-1.7c1-1.3,1.9-3.2,2.8-5.7c0.9-2.5,1.6-5.1,2.3-8l2.8-12.2
				c0.2-0.7,0.3-1.6,0.5-2.5l0.6-2.5h-7.4v-1.5h7.7l1-4.4c0.5-2.2,0.9-3.7,1.2-4.6l0.5-2.1c0.8-3.5,1.8-6.8,2.9-9.9
				c0.7-1.8,1.6-3.7,2.9-5.6c0.8-1.2,1.8-2.3,2.9-3.1H47.1v60.5c0-0.1,0.1-0.1,0.2-0.2C49.3,65.1,52.8,68.2,52,70.4z"/>
			<path class="st2" d="M77.5,7.2c0.2-0.4-0.7,0.1-1,0.3c-0.6,0.4-1.3,1.1-2,2.2c-0.5,0.8-1,2-1.6,3.5c-0.6,1.5-1.2,3.8-1.9,6.6
				c-0.7,2.9-1,4.6-1.1,5.3l-0.5,2.2l-0.9,4l-1.1,4.9h6.9v1.5h-7.3l-1,4.5c-0.1,0.6-0.2,1-0.3,1.4c-0.3,1.1-0.5,2-0.6,2.6L63,54.7
				c-0.9,3.3-1.9,6-2.8,8.2c-0.9,2.1-2.1,4.1-3.5,5.8c-0.7,0.9-1.5,1.6-2.3,2.1h26.2V11.4C78,11.8,77.1,8.2,77.5,7.2z"/>
		</g>
		<rect x="88.7" y="43.1" class="st2" width="189.5" height="1.3"/>
		<g>
			<path class="st2" d="M88.7,6.6c2.1,0,4.2,0,6.4,0.1c2.1,0,4.2,0,6.3,0H114c0.4,1.9,1,4.2,1.5,6.5l-2,0.8l-1.4-2.1
				c-2.2-0.8-7.4-1-9-1c-1,0-1.9,0-2.8,0.1c-0.1,0.8-0.3,4.3-0.3,7.1v1.8h1.8c2.4,0,5.7-0.2,7.6-0.4l0.8-2.2h2
				c0,1.5-0.1,2.9-0.1,4.3c0,1.5,0.1,2.9,0.1,4.3h-2l-0.8-2.2c-1.9-0.2-5.2-0.4-7.6-0.4H100v3.3c0,3.3,0.1,6,0.4,8.7l4,0.5v2
				c-2.8,0-5.6-0.1-8.4-0.1c-2.4,0-4.9,0.1-7.3,0.1v-2l2.9-0.5c0.3-2.7,0.4-5.3,0.4-8.7v-9c0-3.3-0.1-6-0.4-8.7l-2.9-0.5V6.6z"/>
			<path class="st2" d="M144.1,32.4c-3.1,4.2-7.8,6.2-13.4,6.2c-6,0-12.9-3.4-12.9-11.8c0-8.4,6.8-13.8,14.5-13.8
				c7.4,0,11.1,3.9,11.1,10.5c0,0.4,0,0.9-0.1,1.4c-3.2,0-6.4-0.1-9.6-0.1c-2.6,0-5.2,0.1-7.8,0.1c0,5.1,2.5,8.7,8,8.7
				c2.5,0,5.2-0.9,7.7-3.5L144.1,32.4z M136,20.1c0-1.5-0.7-3.8-4.1-3.8c-2.8,0-5.3,2.2-5.7,5.3c3.2,0,6.5,0,9.7-0.5V20.1z"/>
			<path class="st2" d="M146.2,36l2.7-0.5c0.1-3.4,0.3-6.7,0.3-9.3V16c0-2.6-0.1-6-0.3-9.4c-1.1-0.2-2.2-0.4-3.3-0.6v-2
				c1.8-0.1,5.7-0.7,7.9-1.3h3.2c-0.1,3.4-0.3,6.7-0.3,9.3v14.1c0,2.6,0.1,6,0.3,9.3l2.7,0.5v2c-2.2,0-4.4-0.1-6.6-0.1
				c-2.2,0-4.4,0.1-6.6,0.1V36z"/>
			<path class="st2" d="M161.5,36l2.7-0.5c0.1-3.4,0.3-6.7,0.3-9.3c0-2.6-0.1-6-0.3-9.4c-1.1-0.2-2.2-0.4-3.3-0.6v-2
				c1.8-0.1,5.7-0.7,7.9-1.3h3.2c-0.1,3.4-0.3,6.7-0.3,9.3v3.9c0,2.6,0.1,6,0.3,9.3l2.7,0.5v2c-2.2,0-4.4-0.1-6.6-0.1
				c-2.2,0-4.4,0.1-6.6,0.1V36z M168.2,2.3c2.2,0,4,1.8,4,4c0,2.3-1.8,4.1-4.1,4.1c-2.2,0-4-1.8-4-4C164.1,4.1,165.9,2.3,168.2,2.3z
				"/>
			<path class="st2" d="M202.5,33.5c-3.5,3.6-7,5.1-11.8,5.1c-6,0-12.9-3.4-12.9-11.8c0-8,6.7-13.8,16-13.8c2.7,0,6.3,0.6,7.9,1.5
				c-0.8,1.6-1.6,4.4-1.9,6.2l-2.1-0.3l-0.2-2.1c-1.6-1.2-3.3-1.4-5-1.4c-4.3,0-6.4,3.5-6.4,8.5c0,3.4,1.9,8.3,8,8.3
				c2.2,0,4.2-0.9,6.4-2.6L202.5,33.5z"/>
			<path class="st2" d="M204.5,36l2.7-0.5c0.1-3.4,0.3-6.7,0.3-9.3c0-2.6-0.1-6-0.3-9.4c-1.1-0.2-2.2-0.4-3.3-0.6v-2
				c1.8-0.1,5.7-0.7,7.9-1.3h3.2c-0.1,3.4-0.3,6.7-0.3,9.3v3.9c0,2.6,0.1,6,0.3,9.3l2.7,0.5v2c-2.2,0-4.4-0.1-6.6-0.1
				c-2.2,0-4.4,0.1-6.6,0.1V36z M211.2,2.3c2.2,0,4,1.8,4,4c0,2.3-1.8,4.1-4.1,4.1c-2.2,0-4-1.8-4-4C207.1,4.1,208.9,2.3,211.2,2.3z
				"/>
			<path class="st2" d="M224.1,21.1c-0.8-2.1-1.7-4.1-2.7-6c4.9-1.7,8.8-2.1,11.7-2.1c4.6,0,11.1,1.1,11.1,8c0,2.7-0.3,5.7-0.3,7.5
				c0,2.3,0.3,5.2,1,7l2.1,0.5v2c-1.5,0-3-0.1-4.6-0.1c-1.5,0-3,0.1-4.5,0.1c-0.2-0.7-0.3-2-0.3-3.4v-1.4h-0.1
				c-1.5,3.6-4.9,5.3-9.3,5.3c-5.9,0-8.3-3.7-8.3-6.8c0-6.5,7.6-9.4,16.6-9.4v-0.7c0-3.8-1.1-4.9-4.4-4.9c-1.9,0-4.4,0.5-6.1,1.3
				l-0.1,2.4L224.1,21.1z M236.7,25.8h-0.9c-3.8,0-7.6,1.9-7.6,4.9c0,1.6,1.2,2.9,3.1,2.9C236,33.6,236.7,28.6,236.7,25.8z"/>
			<path class="st2" d="M249.2,36l2.7-0.5c0.1-3.4,0.3-6.7,0.3-9.3c0-2.6-0.1-6-0.3-9.4c-1.1-0.2-2.2-0.4-3.3-0.6v-2
				c1.8-0.1,5.7-0.7,7.9-1.3h3.2c-0.1,1.3-0.2,2.6-0.3,3.8l0.1,0.1c2-2.2,4.7-3.9,8.2-3.9c4.3,0,7.4,2.2,7.4,8.7c0,1.6,0,3.2,0,4.5
				c0,2.6,0.1,6,0.3,9.3L278,36v2c-2.2,0-4.4-0.1-6.6-0.1c-1.3,0-2.6,0.1-3.9,0.1c0.2-2.2,0.3-5.1,0.3-9v-5.2c0-3-0.6-5.9-3.5-5.9
				c-3.9,0-4.8,3.8-4.8,7.7v0.5c0,2.6,0.1,6,0.3,9.3l2.7,0.5v2c-2.2,0-4.4-0.1-6.6-0.1c-2.2,0-4.4,0.1-6.6,0.1V36z"/>
		</g>
		<g>
			<path class="st2" d="M88.5,49.7c1.4,0.1,2.7,0.1,4.1,0.1c1.4,0,2.8,0,4.1-0.1v1.1l-1.9,0.3c-0.2,1.6-0.2,3.8-0.2,6.4v4.2
				c0,4.2,1.4,6.5,5,6.5c2.7,0,5.3-1.6,5.3-5.4c0-3-0.1-10-0.3-11.7l-2-0.3v-1.1c1.1,0.1,2.2,0.1,3.4,0.1c1.2,0,2.3,0,3.5-0.1v1.1
				l-1.9,0.3c-0.2,1.6-0.2,3.8-0.2,6.4c0,1.9,0.1,4.1,0.1,5.3c0,4.4-2.6,7.8-9.2,7.8c-6.9,0-7.6-4.8-7.6-6.8c0-1.2,0.1-2.4,0.1-3.4
				v-2.9c0-2.6,0-4.7-0.2-6.4l-1.9-0.3V49.7z"/>
			<path class="st2" d="M127.7,65.4L127.7,65.4l0.1-4.9c0-3.8-0.2-7.3-0.5-9.4l-1.8-0.3v-1.1c1,0.1,2.1,0.1,3.2,0.1
				c1.2,0,2.3,0,3.5-0.1v1.1l-1.9,0.3c-0.2,1.6-0.2,3.8-0.2,6.4v5c0,2.1,0.1,5.1,0.1,8c-0.6-0.1-1.1-0.1-1.7-0.1
				c-0.6,0-1.1,0-1.7,0.1l-10.6-15.9h-0.1v4.9c0,3.8,0.2,7.3,0.5,9.4l1.8,0.3v1.1c-1.2-0.1-2.3-0.1-3.5-0.1c-1.1,0-2.1,0-3.2,0.1
				v-1.1l1.9-0.3c0.2-1.6,0.2-3.8,0.2-6.4v-5c0-2.6,0-4.7-0.2-6.4l-1.9-0.3v-1.1c1.1,0.1,2,0.1,3,0.1c0.8,0,1.6,0,2.5-0.1
				L127.7,65.4z"/>
			<path class="st2" d="M134.6,69.2l1.9-0.3c0.2-1.6,0.2-3.8,0.2-6.4v-5c0-2.6,0-4.7-0.2-6.4l-1.9-0.3v-1.1c1.4,0.1,2.7,0.1,4.1,0.1
				c1.4,0,2.8,0,4.1-0.1v1.1l-1.9,0.3c-0.2,1.6-0.2,3.8-0.2,6.4v5c0,2.6,0,4.8,0.2,6.4l1.9,0.3v1.1c-1.3-0.1-2.7-0.1-4.1-0.1
				c-1.4,0-2.7,0-4.1,0.1V69.2z"/>
			<path class="st2" d="M166,50.8l-1.8,0.3c-2.7,5.7-5.3,13.3-7.3,19.4c-0.6-0.1-1.2-0.1-1.8-0.1c-0.6,0-1.2,0-1.8,0.1
				c-3.4-9.7-4.6-13.2-7.4-19.4l-1.7-0.3v-1.1c1.4,0.1,2.8,0.1,4.2,0.1c1.3,0,2.6,0,3.9-0.1v1.1l-1.7,0.3c1.9,6.3,3.1,9.9,5.3,16
				h0.1c1.9-5.3,4.1-11.9,5.3-16l-1.5-0.3v-1.1c1.1,0.1,2.1,0.1,3.2,0.1c1.1,0,2.1,0,3.2-0.1V50.8z"/>
			<path class="st2" d="M167.5,69.2l1.9-0.3c0.2-1.6,0.2-3.8,0.2-6.4v-5c0-2.6,0-4.7-0.2-6.4l-1.9-0.3v-1.1c1.4,0,2.7,0,4,0.1
				c1.4,0,2.7,0,4,0h8.1c0.1,1,0.6,2.8,0.9,3.9l-1.1,0.4l-1-1.7c-1.7-0.5-4.4-0.6-7.2-0.6h-1.6c0,1.4-0.2,4.3-0.2,6.2
				c2.2,0,4.4-0.1,6.5-0.2l0.7-1.3h1.1c-0.1,0.7-0.1,1.5-0.1,2.2c0,0.7,0.1,1.8,0.1,2.9h-1.1l-0.7-1.5c-1.4-0.1-3.3-0.2-6.5-0.2v3.7
				c0,1.8,0.1,3.3,0.2,4.5c0.6,0,1.6,0.1,2.2,0.1c3.1,0,6.4-0.3,7.5-0.6l1.1-2.1l1.1,0.4c-0.3,1.1-0.8,3.1-1,4.3H176
				c-2.8,0-5.7,0.1-8.5,0.1V69.2z"/>
			<path class="st2" d="M208.2,70.2c-1.4,0-3.6,0-5.2,0.4c-2.2-3.2-5-6.9-7.3-9.8h-2.1v1.7c0,2.6,0,4.8,0.2,6.4l1.9,0.3v1.1
				c-1.3-0.1-2.7-0.1-4.1-0.1c-1.4,0-2.7,0-4.1,0.1v-1.1l1.9-0.3c0.2-1.6,0.2-3.8,0.2-6.4v-5c0-2.6,0-4.7-0.2-6.4l-1.9-0.3v-1.1
				c1.2,0,2.4,0.1,3.7,0.1c0.9,0,1.9-0.1,3.1-0.1c1.2-0.1,2.7-0.1,4.4-0.1c3.4,0,6.7,1.1,6.7,5c0,3.3-2.4,5-5.9,5.6
				c1.4,1.6,4.9,5.7,7.4,8.6l1.2,0.3V70.2z M193.6,58.7c0.4,0.1,1.1,0.2,2.2,0.2c3.6,0,5.6-1.8,5.6-4c0-2.8-3.1-3.3-4.5-3.3
				c-1.1,0-2.4,0.1-3,0.3c-0.1,1.4-0.1,2.7-0.1,4.1V58.7z"/>
			<path class="st2" d="M212,64.5l-0.1,2c2.1,1.3,4.5,1.9,6.2,1.9c3.2,0,4.3-1.9,4.3-3.3c0-5.2-12.7-2.7-12.7-9.6
				c0-3.1,3.1-6.1,8.8-6.1c2.3,0,4.4,0.4,7.3,1.3c-0.6,1.3-1.2,2.9-1.6,4.4l-1.1-0.3l0.1-1.6c-1.4-1-4-1.5-5.4-1.5
				c-2,0-4.2,0.8-4.2,2.8c0,4.7,12.9,2.1,12.9,9.4c0,3.4-3,6.9-9.4,6.9c-2.8,0-5.8-0.5-8.1-1.9c0.6-1.1,1.3-2.9,1.8-4.5L212,64.5z"
				/>
			<path class="st2" d="M229,69.2l1.9-0.3c0.2-1.6,0.2-3.8,0.2-6.4v-5c0-2.6,0-4.7-0.2-6.4l-1.9-0.3v-1.1c1.4,0.1,2.7,0.1,4.1,0.1
				c1.4,0,2.8,0,4.1-0.1v1.1l-1.9,0.3c-0.2,1.6-0.2,3.8-0.2,6.4v5c0,2.6,0,4.8,0.2,6.4l1.9,0.3v1.1c-1.3-0.1-2.7-0.1-4.1-0.1
				c-1.4,0-2.7,0-4.1,0.1V69.2z"/>
			<path class="st2" d="M243.9,69.2l2.2-0.3c0.2-1.6,0.2-3.8,0.2-6.4v-4.3c0-2.6,0-4.7-0.2-6.4c-2.4,0-4.1,0.3-5.4,0.6l-1,2
				l-1.1-0.4c0.5-1,0.9-3.2,1.1-4.2h17.2c0.1,1,0.6,3.2,1.1,4.2l-1.1,0.4l-1-2c-1.2-0.3-2.9-0.6-5.4-0.6c-0.2,1.6-0.2,3.8-0.2,6.4
				v4.3c0,2.6,0,4.8,0.2,6.4l2.2,0.3v1.1c-1.6-0.1-3-0.1-4.3-0.1c-1.4,0-2.7,0-4.3,0.1V69.2z"/>
			<path class="st2" d="M270.3,62.5c0,2.6,0,4.8,0.2,6.4l2.2,0.3v1.1c-1.6-0.1-3-0.1-4.4-0.1c-1.4,0-2.7,0-4.4,0.1v-1.1l2.2-0.3
				c0.2-1.6,0.2-3.8,0.2-6.4v-0.8c-2.2-3.5-4.3-7.1-6.6-10.6l-1.6-0.3v-1.1c1.3,0.1,2.6,0.1,3.9,0.1c1.3,0,2.5,0,3.8-0.1v1.1
				l-1.4,0.3c1.2,2.5,2.9,5.9,4.7,8.9c1.4-2.4,3.5-6.3,4.7-8.9l-1.6-0.3v-1.1c1.1,0.1,2.2,0.1,3.2,0.1c1,0,2,0,3.1-0.1v1.1l-1.6,0.3
				c-1.8,2.6-5.4,8.3-6.7,10.6V62.5z"/>
		</g>
		<g>
			<path class="st2" d="M45.6,84.6l0.7-0.1c0.1-0.5,0.1-1.2,0.1-2v-1.4c0-0.8,0-1.5-0.1-2c-0.8,0-1.3,0.1-1.7,0.2l-0.3,0.6l-0.3-0.1
				c0.2-0.3,0.3-1,0.3-1.3h5.5c0,0.3,0.2,1,0.3,1.3l-0.3,0.1l-0.3-0.6c-0.4-0.1-0.9-0.2-1.7-0.2c-0.1,0.5-0.1,1.2-0.1,2v1.4
				c0,0.8,0,1.5,0.1,2l0.7,0.1V85c-0.5,0-0.9,0-1.4,0c-0.4,0-0.9,0-1.4,0V84.6z"/>
			<path class="st2" d="M54.6,84.6l0.6-0.1c0.1-0.5,0.1-1.2,0.1-2v-0.7c-0.5,0-1,0-1.4,0s-0.9,0-1.4,0v0.7c0,0.8,0,1.5,0.1,2
				l0.6,0.1V85c-0.4,0-0.9,0-1.3,0c-0.4,0-0.9,0-1.3,0v-0.3l0.6-0.1c0.1-0.5,0.1-1.2,0.1-2v-1.6c0-0.8,0-1.5-0.1-2l-0.6-0.1v-0.3
				c0.4,0,0.9,0,1.3,0c0.4,0,0.9,0,1.3,0v0.3l-0.6,0.1c-0.1,0.5-0.1,1.2-0.1,2v0.2c0.5,0,1,0,1.4,0s0.9,0,1.4,0v-0.2
				c0-0.8,0-1.5-0.1-2l-0.6-0.1v-0.3c0.4,0,0.8,0,1.3,0c0.4,0,0.9,0,1.3,0v0.3l-0.6,0.1c-0.1,0.5-0.1,1.2-0.1,2v1.6
				c0,0.8,0,1.5,0.1,2l0.6,0.1V85c-0.4,0-0.9,0-1.3,0c-0.4,0-0.9,0-1.3,0V84.6z"/>
			<path class="st2" d="M57.9,84.6l0.6-0.1c0.1-0.5,0.1-1.2,0.1-2v-1.6c0-0.8,0-1.5-0.1-2l-0.6-0.1v-0.3c0.4,0,0.9,0,1.3,0
				c0.4,0,0.9,0,1.3,0h2.6c0,0.3,0.2,0.9,0.3,1.2L63,79.8l-0.3-0.5c-0.5-0.1-1.4-0.2-2.3-0.2h-0.5c0,0.4-0.1,1.4-0.1,2
				c0.7,0,1.4,0,2.1-0.1l0.2-0.4h0.3c0,0.2,0,0.5,0,0.7s0,0.6,0,0.9h-0.3l-0.2-0.5c-0.4,0-1-0.1-2.1-0.1v1.2c0,0.6,0,1.1,0.1,1.4
				c0.2,0,0.5,0,0.7,0c1,0,2-0.1,2.4-0.2l0.4-0.7l0.3,0.1c-0.1,0.3-0.2,1-0.3,1.4h-2.7c-0.9,0-1.8,0-2.7,0V84.6z"/>
			<path class="st2" d="M67.5,84.6l0.6-0.1c0.1-0.5,0.1-1.2,0.1-2v-1.6c0-0.8,0-1.5-0.1-2l-0.6-0.1v-0.3c0.4,0,0.8,0,1.2,0
				c0.4,0,0.8,0,1.2,0h2.4c0,0.4,0.1,0.8,0.3,1.2l-0.3,0.1L72,79.3c-0.8-0.2-1.9-0.2-2.5-0.2c0,0.4-0.1,1.4-0.1,2v0.2
				c0.7,0,1.4,0,2-0.1l0.2-0.4h0.3c0,0.2,0,0.5,0,0.8c0,0.4,0,0.6,0,0.8h-0.3l-0.2-0.5c-0.6-0.1-1.3-0.1-2-0.1v0.6
				c0,0.8,0,1.5,0.1,2c0.3,0,0.6,0.1,0.9,0.1V85c-0.5,0-1.1,0-1.6,0c-0.4,0-0.9,0-1.3,0V84.6z"/>
			<path class="st2" d="M79.8,85c-0.4,0-1.2,0-1.7,0.1c-0.7-1-1.6-2.2-2.3-3.1h-0.7v0.5c0,0.8,0,1.5,0.1,2l0.6,0.1V85
				c-0.4,0-0.9,0-1.3,0c-0.4,0-0.9,0-1.3,0v-0.3l0.6-0.1c0.1-0.5,0.1-1.2,0.1-2v-1.6c0-0.8,0-1.5-0.1-2l-0.6-0.1v-0.3
				c0.4,0,0.8,0,1.2,0c0.3,0,0.6,0,1,0c0.4,0,0.9,0,1.4,0c1.1,0,2.1,0.3,2.1,1.6c0,1-0.8,1.6-1.9,1.8c0.5,0.5,1.6,1.8,2.3,2.7
				l0.4,0.1V85z M75.1,81.3c0.1,0,0.4,0.1,0.7,0.1c1.1,0,1.8-0.6,1.8-1.3c0-0.9-1-1-1.4-1.1c-0.4,0-0.8,0-1,0.1c0,0.4,0,0.9,0,1.3
				V81.3z"/>
			<path class="st2" d="M79.9,84.6l0.5-0.1c0.6-1.2,1.8-4.6,2.2-5.9c0.3-0.1,0.9-0.2,1.1-0.3l0.4,0.1c0.5,1.5,1.5,4.4,2.2,6.1
				l0.5,0.1V85c-0.4,0-0.9,0-1.3,0c-0.4,0-0.9,0-1.3,0v-0.3l0.6-0.1c-0.2-0.7-0.4-1.5-0.6-2.1H82c-0.2,0.7-0.4,1.4-0.6,2.1l0.6,0.1
				V85c-0.4,0-0.7,0-1.1,0c-0.3,0-0.7,0-1,0V84.6z M84.1,81.9c-0.3-0.8-0.7-2-0.9-2.7h0c-0.3,0.9-0.6,1.8-0.9,2.7H84.1z"/>
			<path class="st2" d="M92.5,83.4L92.5,83.4l0-1.6c0-1.2-0.1-2.3-0.1-3l-0.6-0.1v-0.3c0.3,0,0.7,0,1,0c0.4,0,0.7,0,1.1,0v0.3
				l-0.6,0.1c-0.1,0.5-0.1,1.2-0.1,2v1.6c0,0.7,0,1.6,0,2.6c-0.2,0-0.4,0-0.5,0c-0.2,0-0.4,0-0.5,0L88.8,80h0v1.6
				c0,1.2,0.1,2.3,0.1,3l0.6,0.1V85c-0.4,0-0.7,0-1.1,0c-0.3,0-0.7,0-1,0v-0.3l0.6-0.1c0.1-0.5,0.1-1.2,0.1-2v-1.6
				c0-0.8,0-1.5-0.1-2l-0.6-0.1v-0.3c0.3,0,0.7,0,1,0c0.3,0,0.5,0,0.8,0L92.5,83.4z"/>
			<path class="st2" d="M100.9,83.8c-0.3,0.3-1.3,1.3-2.9,1.3c-2.2,0-3.3-1.7-3.3-3.3c0-1.8,1.4-3.4,3.9-3.4c0.8,0,1.5,0.1,2.1,0.4
				c-0.1,0.4-0.3,1-0.3,1.4l-0.3,0l-0.1-0.6c-0.5-0.3-1.1-0.4-1.6-0.4c-1.4,0-2.3,1-2.3,2.5c0,1.7,1.1,2.7,2.5,2.7
				c0.8,0,1.5-0.3,2-0.9L100.9,83.8z"/>
			<path class="st2" d="M101.6,84.6l0.6-0.1c0.1-0.5,0.1-1.2,0.1-2v-1.6c0-0.8,0-1.5-0.1-2l-0.6-0.1v-0.3c0.4,0,0.9,0,1.3,0
				c0.4,0,0.9,0,1.3,0v0.3l-0.6,0.1c-0.1,0.5-0.1,1.2-0.1,2v1.6c0,0.8,0,1.5,0.1,2l0.6,0.1V85c-0.4,0-0.9,0-1.3,0
				c-0.4,0-0.9,0-1.3,0V84.6z"/>
			<path class="st2" d="M105.7,83.1l0,0.6c0.7,0.4,1.4,0.6,2,0.6c1,0,1.4-0.6,1.4-1.1c0-1.7-4.1-0.9-4.1-3.1c0-1,1-1.9,2.8-1.9
				c0.7,0,1.4,0.1,2.3,0.4c-0.2,0.4-0.4,0.9-0.5,1.4l-0.3-0.1l0-0.5c-0.4-0.3-1.3-0.5-1.7-0.5c-0.6,0-1.3,0.2-1.3,0.9
				c0,1.5,4.1,0.7,4.1,3c0,1.1-1,2.2-3,2.2c-0.9,0-1.8-0.2-2.6-0.6c0.2-0.3,0.4-0.9,0.6-1.4L105.7,83.1z"/>
			<path class="st2" d="M117.4,83.8c-0.3,0.3-1.3,1.3-2.9,1.3c-2.2,0-3.3-1.7-3.3-3.3c0-1.8,1.4-3.4,3.9-3.4c0.8,0,1.5,0.1,2.1,0.4
				c-0.1,0.4-0.3,1-0.3,1.4l-0.3,0l-0.1-0.6c-0.5-0.3-1.1-0.4-1.6-0.4c-1.4,0-2.3,1-2.3,2.5c0,1.7,1.1,2.7,2.5,2.7
				c0.8,0,1.5-0.3,2-0.9L117.4,83.8z"/>
			<path class="st2" d="M117.8,84.6l0.5-0.1c0.6-1.2,1.8-4.6,2.2-5.9c0.3-0.1,0.9-0.2,1.1-0.3l0.4,0.1c0.5,1.5,1.5,4.4,2.2,6.1
				l0.5,0.1V85c-0.4,0-0.9,0-1.3,0c-0.4,0-0.9,0-1.3,0v-0.3l0.6-0.1c-0.2-0.7-0.4-1.5-0.6-2.1h-2.2c-0.2,0.7-0.4,1.4-0.6,2.1
				l0.6,0.1V85c-0.4,0-0.7,0-1.1,0c-0.3,0-0.7,0-1,0V84.6z M122,81.9c-0.3-0.8-0.7-2-0.9-2.7h0c-0.3,0.9-0.6,1.8-0.9,2.7H122z"/>
			<path class="st2" d="M130.4,83.4L130.4,83.4l0-1.6c0-1.2-0.1-2.3-0.1-3l-0.6-0.1v-0.3c0.3,0,0.7,0,1,0c0.4,0,0.7,0,1.1,0v0.3
				l-0.6,0.1c-0.1,0.5-0.1,1.2-0.1,2v1.6c0,0.7,0,1.6,0,2.6c-0.2,0-0.4,0-0.5,0c-0.2,0-0.4,0-0.5,0l-3.4-5.1h0v1.6
				c0,1.2,0.1,2.3,0.1,3l0.6,0.1V85c-0.4,0-0.7,0-1.1,0c-0.3,0-0.7,0-1,0v-0.3l0.6-0.1c0.1-0.5,0.1-1.2,0.1-2v-1.6
				c0-0.8,0-1.5-0.1-2l-0.6-0.1v-0.3c0.3,0,0.7,0,1,0c0.3,0,0.5,0,0.8,0L130.4,83.4z"/>
			<path class="st2" d="M135.8,78.4c0.4,0,0.9,0,1.3,0c0.4,0,0.9,0,1.3,0v0.3l-0.6,0.1c-0.1,0.5-0.1,1.2-0.1,2v1.3
				c0,1.3,0.4,2.1,1.6,2.1c0.9,0,1.7-0.5,1.7-1.7c0-1,0-3.2-0.1-3.7l-0.6-0.1v-0.3c0.3,0,0.7,0,1.1,0c0.4,0,0.7,0,1.1,0v0.3
				l-0.6,0.1c-0.1,0.5-0.1,1.2-0.1,2c0,0.6,0,1.3,0,1.7c0,1.4-0.8,2.5-2.9,2.5c-2.2,0-2.4-1.5-2.4-2.2c0-0.4,0-0.8,0-1.1v-0.9
				c0-0.8,0-1.5-0.1-2l-0.6-0.1V78.4z"/>
			<path class="st2" d="M148.3,83.4L148.3,83.4l0-1.6c0-1.2-0.1-2.3-0.1-3l-0.6-0.1v-0.3c0.3,0,0.7,0,1,0c0.4,0,0.7,0,1.1,0v0.3
				l-0.6,0.1c-0.1,0.5-0.1,1.2-0.1,2v1.6c0,0.7,0,1.6,0,2.6c-0.2,0-0.4,0-0.5,0c-0.2,0-0.4,0-0.5,0l-3.4-5.1h0v1.6
				c0,1.2,0.1,2.3,0.1,3l0.6,0.1V85c-0.4,0-0.7,0-1.1,0c-0.3,0-0.7,0-1,0v-0.3l0.6-0.1c0.1-0.5,0.1-1.2,0.1-2v-1.6
				c0-0.8,0-1.5-0.1-2l-0.6-0.1v-0.3c0.3,0,0.7,0,1,0c0.3,0,0.5,0,0.8,0L148.3,83.4z"/>
			<path class="st2" d="M150.4,84.6l0.6-0.1c0.1-0.5,0.1-1.2,0.1-2v-1.6c0-0.8,0-1.5-0.1-2l-0.6-0.1v-0.3c0.4,0,0.9,0,1.3,0
				c0.4,0,0.9,0,1.3,0v0.3l-0.6,0.1c-0.1,0.5-0.1,1.2-0.1,2v1.6c0,0.8,0,1.5,0.1,2l0.6,0.1V85c-0.4,0-0.9,0-1.3,0
				c-0.4,0-0.9,0-1.3,0V84.6z"/>
			<path class="st2" d="M160.4,78.8l-0.6,0.1c-0.9,1.8-1.7,4.2-2.3,6.2c-0.2,0-0.4,0-0.6,0c-0.2,0-0.4,0-0.6,0
				c-1.1-3.1-1.5-4.2-2.3-6.2l-0.6-0.1v-0.3c0.4,0,0.9,0,1.3,0c0.4,0,0.8,0,1.2,0v0.3l-0.5,0.1c0.6,2,1,3.2,1.7,5.1h0
				c0.6-1.7,1.3-3.8,1.7-5.1l-0.5-0.1v-0.3c0.3,0,0.7,0,1,0s0.7,0,1,0V78.8z"/>
			<path class="st2" d="M160.9,84.6l0.6-0.1c0.1-0.5,0.1-1.2,0.1-2v-1.6c0-0.8,0-1.5-0.1-2l-0.6-0.1v-0.3c0.4,0,0.9,0,1.3,0
				c0.4,0,0.9,0,1.3,0h2.6c0,0.3,0.2,0.9,0.3,1.2l-0.3,0.1l-0.3-0.5c-0.5-0.1-1.4-0.2-2.3-0.2h-0.5c0,0.4-0.1,1.4-0.1,2
				c0.7,0,1.4,0,2.1-0.1l0.2-0.4h0.3c0,0.2,0,0.5,0,0.7s0,0.6,0,0.9h-0.3l-0.2-0.5c-0.4,0-1-0.1-2.1-0.1v1.2c0,0.6,0,1.1,0.1,1.4
				c0.2,0,0.5,0,0.7,0c1,0,2-0.1,2.4-0.2l0.4-0.7l0.3,0.1c-0.1,0.3-0.2,1-0.3,1.4h-2.7c-0.9,0-1.8,0-2.7,0V84.6z"/>
			<path class="st2" d="M173.8,85c-0.4,0-1.2,0-1.7,0.1c-0.7-1-1.6-2.2-2.3-3.1h-0.7v0.5c0,0.8,0,1.5,0.1,2l0.6,0.1V85
				c-0.4,0-0.9,0-1.3,0c-0.4,0-0.9,0-1.3,0v-0.3l0.6-0.1c0.1-0.5,0.1-1.2,0.1-2v-1.6c0-0.8,0-1.5-0.1-2l-0.6-0.1v-0.3
				c0.4,0,0.8,0,1.2,0c0.3,0,0.6,0,1,0c0.4,0,0.9,0,1.4,0c1.1,0,2.1,0.3,2.1,1.6c0,1-0.8,1.6-1.9,1.8c0.5,0.5,1.6,1.8,2.3,2.7
				l0.4,0.1V85z M169.2,81.3c0.1,0,0.4,0.1,0.7,0.1c1.1,0,1.8-0.6,1.8-1.3c0-0.9-1-1-1.4-1.1c-0.4,0-0.8,0-1,0.1c0,0.4,0,0.9,0,1.3
				V81.3z"/>
			<path class="st2" d="M175,83.1l0,0.6c0.7,0.4,1.4,0.6,2,0.6c1,0,1.4-0.6,1.4-1.1c0-1.7-4.1-0.9-4.1-3.1c0-1,1-1.9,2.8-1.9
				c0.7,0,1.4,0.1,2.3,0.4c-0.2,0.4-0.4,0.9-0.5,1.4l-0.3-0.1l0-0.5c-0.4-0.3-1.3-0.5-1.7-0.5c-0.6,0-1.3,0.2-1.3,0.9
				c0,1.5,4.1,0.7,4.1,3c0,1.1-1,2.2-3,2.2c-0.9,0-1.8-0.2-2.6-0.6c0.2-0.3,0.4-0.9,0.6-1.4L175,83.1z"/>
			<path class="st2" d="M180.4,84.6l0.6-0.1c0.1-0.5,0.1-1.2,0.1-2v-1.6c0-0.8,0-1.5-0.1-2l-0.6-0.1v-0.3c0.4,0,0.9,0,1.3,0
				c0.4,0,0.9,0,1.3,0v0.3l-0.6,0.1c-0.1,0.5-0.1,1.2-0.1,2v1.6c0,0.8,0,1.5,0.1,2l0.6,0.1V85c-0.4,0-0.9,0-1.3,0
				c-0.4,0-0.9,0-1.3,0V84.6z"/>
			<path class="st2" d="M185.1,84.6l0.7-0.1c0.1-0.5,0.1-1.2,0.1-2v-1.4c0-0.8,0-1.5-0.1-2c-0.8,0-1.3,0.1-1.7,0.2l-0.3,0.6
				l-0.3-0.1c0.2-0.3,0.3-1,0.3-1.3h5.5c0,0.3,0.2,1,0.3,1.3l-0.3,0.1l-0.3-0.6c-0.4-0.1-0.9-0.2-1.7-0.2c-0.1,0.5-0.1,1.2-0.1,2
				v1.4c0,0.8,0,1.5,0.1,2l0.7,0.1V85c-0.5,0-0.9,0-1.4,0c-0.4,0-0.9,0-1.4,0V84.6z"/>
			<path class="st2" d="M193.5,82.5c0,0.8,0,1.5,0.1,2l0.7,0.1V85c-0.5,0-1,0-1.4,0c-0.4,0-0.9,0-1.4,0v-0.3l0.7-0.1
				c0.1-0.5,0.1-1.2,0.1-2v-0.2c-0.7-1.1-1.4-2.3-2.1-3.4l-0.5-0.1v-0.3c0.4,0,0.8,0,1.2,0c0.4,0,0.8,0,1.2,0v0.3l-0.5,0.1
				c0.4,0.8,0.9,1.9,1.5,2.8c0.4-0.8,1.1-2,1.5-2.8l-0.5-0.1v-0.3c0.3,0,0.7,0,1,0c0.3,0,0.7,0,1,0v0.3l-0.5,0.1
				c-0.6,0.8-1.7,2.7-2.1,3.4V82.5z"/>
			<path class="st2" d="M203.5,78.3c2.6,0,3.6,1.8,3.6,3.4c0,1.7-1.2,3.4-3.6,3.4c-2.7,0-3.6-1.9-3.6-3.4
				C199.9,80.2,201,78.3,203.5,78.3z M203.5,84.4c1.1,0,2.2-0.9,2.2-2.7c0-1.4-0.8-2.7-2.2-2.7c-1.3,0-2.2,1.1-2.2,2.7
				C201.3,83.4,202.4,84.4,203.5,84.4z"/>
			<path class="st2" d="M208,84.6l0.6-0.1c0.1-0.5,0.1-1.2,0.1-2v-1.6c0-0.8,0-1.5-0.1-2l-0.6-0.1v-0.3c0.4,0,0.8,0,1.2,0
				c0.4,0,0.8,0,1.2,0h2.4c0,0.4,0.1,0.8,0.3,1.2l-0.3,0.1l-0.3-0.6c-0.8-0.2-1.9-0.2-2.5-0.2c0,0.4-0.1,1.4-0.1,2v0.2
				c0.7,0,1.4,0,2-0.1l0.2-0.4h0.3c0,0.2,0,0.5,0,0.8c0,0.4,0,0.6,0,0.8h-0.3l-0.2-0.5c-0.6-0.1-1.3-0.1-2-0.1v0.6
				c0,0.8,0,1.5,0.1,2c0.3,0,0.6,0.1,0.9,0.1V85c-0.5,0-1.1,0-1.6,0c-0.4,0-0.9,0-1.3,0V84.6z"/>
			<path class="st2" d="M222,83.4L222,83.4l0-1.6c0-1.2-0.1-2.3-0.1-3l-0.6-0.1v-0.3c0.3,0,0.7,0,1,0c0.4,0,0.7,0,1.1,0v0.3
				l-0.6,0.1c-0.1,0.5-0.1,1.2-0.1,2v1.6c0,0.7,0,1.6,0,2.6c-0.2,0-0.4,0-0.5,0c-0.2,0-0.4,0-0.5,0l-3.4-5.1h0v1.6
				c0,1.2,0.1,2.3,0.1,3l0.6,0.1V85c-0.4,0-0.7,0-1.1,0c-0.3,0-0.7,0-1,0v-0.3l0.6-0.1c0.1-0.5,0.1-1.2,0.1-2v-1.6
				c0-0.8,0-1.5-0.1-2l-0.6-0.1v-0.3c0.3,0,0.7,0,1,0c0.3,0,0.5,0,0.8,0L222,83.4z"/>
			<path class="st2" d="M224.2,84.6l0.6-0.1c0.1-0.5,0.1-1.2,0.1-2v-1.6c0-0.8,0-1.5-0.1-2l-0.6-0.1v-0.3c0.4,0,0.9,0,1.3,0
				c0.4,0,0.9,0,1.3,0h2.6c0,0.3,0.2,0.9,0.3,1.2l-0.3,0.1l-0.3-0.5c-0.5-0.1-1.4-0.2-2.3-0.2h-0.5c0,0.4-0.1,1.4-0.1,2
				c0.7,0,1.4,0,2.1-0.1l0.2-0.4h0.3c0,0.2,0,0.5,0,0.7s0,0.6,0,0.9h-0.3l-0.2-0.5c-0.4,0-1-0.1-2.1-0.1v1.2c0,0.6,0,1.1,0.1,1.4
				c0.2,0,0.5,0,0.7,0c1,0,2-0.1,2.4-0.2l0.4-0.7l0.3,0.1c-0.1,0.3-0.2,1-0.3,1.4h-2.7c-0.9,0-1.8,0-2.7,0V84.6z"/>
			<path class="st2" d="M239.9,78.8l-0.5,0.1c-0.5,1.3-1.5,4.8-1.9,6.2c-0.2,0-0.4,0-0.5,0c-0.2,0-0.4,0-0.6,0
				c-0.4-1.4-0.9-3.4-1.3-5.1h0c-0.3,1.3-0.9,3.7-1.2,5.1c-0.2,0-0.3,0-0.5,0c-0.2,0-0.4,0-0.6,0l-0.1-0.3c-0.8-2.9-1.7-5.7-1.8-5.9
				l-0.6-0.1v-0.3c0.5,0,0.9,0,1.4,0c0.4,0,0.7,0,1.1,0v0.3l-0.5,0.1c0.1,0.9,1,3.9,1.2,4.8h0c0.4-1.7,0.9-3.5,1.2-5.3
				c0.2,0,0.3,0,0.5,0c0.2,0,0.4,0,0.5,0c0.2,1.3,0.9,3.8,1.3,5.3h0c0.3-1,1.1-4.1,1.2-4.8l-0.5-0.1v-0.3c0.3,0,0.7,0,1,0
				c0.3,0,0.7,0,1,0V78.8z"/>
			<path class="st2" d="M242.7,86.2c1.4-0.9,1.6-1.6,1.6-3v-2.3c0-0.8,0-1.5-0.1-2l-0.6-0.1v-0.3c0.4,0,0.9,0,1.3,0
				c0.4,0,0.9,0,1.3,0v0.3l-0.6,0.1c-0.1,0.5-0.1,1.2-0.1,2v0.9c0,0.5,0.1,1.3,0.1,2c0,0.7-0.1,1.8-2.6,2.9L242.7,86.2z"/>
			<path class="st2" d="M246.9,84.6l0.6-0.1c0.1-0.5,0.1-1.2,0.1-2v-1.6c0-0.8,0-1.5-0.1-2l-0.6-0.1v-0.3c0.4,0,0.9,0,1.3,0
				c0.4,0,0.9,0,1.3,0h2.6c0,0.3,0.2,0.9,0.3,1.2l-0.3,0.1l-0.3-0.5c-0.5-0.1-1.4-0.2-2.3-0.2h-0.5c0,0.4-0.1,1.4-0.1,2
				c0.7,0,1.4,0,2.1-0.1l0.2-0.4h0.3c0,0.2,0,0.5,0,0.7s0,0.6,0,0.9h-0.3l-0.2-0.5c-0.4,0-1-0.1-2.1-0.1v1.2c0,0.6,0,1.1,0.1,1.4
				c0.2,0,0.5,0,0.7,0c1,0,2-0.1,2.4-0.2l0.4-0.7l0.3,0.1c-0.1,0.3-0.2,1-0.3,1.4h-2.7c-0.9,0-1.8,0-2.7,0V84.6z"/>
			<path class="st2" d="M259.9,85c-0.4,0-1.2,0-1.7,0.1c-0.7-1-1.6-2.2-2.3-3.1h-0.7v0.5c0,0.8,0,1.5,0.1,2l0.6,0.1V85
				c-0.4,0-0.9,0-1.3,0c-0.4,0-0.9,0-1.3,0v-0.3l0.6-0.1c0.1-0.5,0.1-1.2,0.1-2v-1.6c0-0.8,0-1.5-0.1-2l-0.6-0.1v-0.3
				c0.4,0,0.8,0,1.2,0c0.3,0,0.6,0,1,0c0.4,0,0.9,0,1.4,0c1.1,0,2.1,0.3,2.1,1.6c0,1-0.8,1.6-1.9,1.8c0.5,0.5,1.6,1.8,2.3,2.7
				l0.4,0.1V85z M255.2,81.3c0.1,0,0.4,0.1,0.7,0.1c1.1,0,1.8-0.6,1.8-1.3c0-0.9-1-1-1.4-1.1c-0.4,0-0.8,0-1,0.1c0,0.4,0,0.9,0,1.3
				V81.3z"/>
			<path class="st2" d="M261.1,83.1l0,0.6c0.7,0.4,1.4,0.6,2,0.6c1,0,1.4-0.6,1.4-1.1c0-1.7-4.1-0.9-4.1-3.1c0-1,1-1.9,2.8-1.9
				c0.7,0,1.4,0.1,2.3,0.4c-0.2,0.4-0.4,0.9-0.5,1.4l-0.3-0.1l0-0.5c-0.4-0.3-1.3-0.5-1.7-0.5c-0.6,0-1.3,0.2-1.3,0.9
				c0,1.5,4.1,0.7,4.1,3c0,1.1-1,2.2-3,2.2c-0.9,0-1.8-0.2-2.6-0.6c0.2-0.3,0.4-0.9,0.6-1.4L261.1,83.1z"/>
			<path class="st2" d="M266.5,84.6l0.6-0.1c0.1-0.5,0.1-1.2,0.1-2v-1.6c0-0.8,0-1.5-0.1-2l-0.6-0.1v-0.3c0.4,0,0.9,0,1.3,0
				c0.4,0,0.9,0,1.3,0h2.6c0,0.3,0.2,0.9,0.3,1.2l-0.3,0.1l-0.3-0.5c-0.5-0.1-1.4-0.2-2.3-0.2h-0.5c0,0.4-0.1,1.4-0.1,2
				c0.7,0,1.4,0,2.1-0.1l0.2-0.4h0.3c0,0.2,0,0.5,0,0.7s0,0.6,0,0.9h-0.3l-0.2-0.5c-0.4,0-1-0.1-2.1-0.1v1.2c0,0.6,0,1.1,0.1,1.4
				c0.2,0,0.5,0,0.7,0c1,0,2-0.1,2.4-0.2l0.4-0.7l0.3,0.1c-0.1,0.3-0.2,1-0.3,1.4h-2.7c-0.9,0-1.8,0-2.7,0V84.6z"/>
			<path class="st2" d="M276.4,82.5c0,0.8,0,1.5,0.1,2l0.7,0.1V85c-0.5,0-1,0-1.4,0c-0.4,0-0.9,0-1.4,0v-0.3l0.7-0.1
				c0.1-0.5,0.1-1.2,0.1-2v-0.2c-0.7-1.1-1.4-2.3-2.1-3.4l-0.5-0.1v-0.3c0.4,0,0.8,0,1.2,0c0.4,0,0.8,0,1.2,0v0.3l-0.5,0.1
				c0.4,0.8,0.9,1.9,1.5,2.8c0.4-0.8,1.1-2,1.5-2.8l-0.5-0.1v-0.3c0.3,0,0.7,0,1,0c0.3,0,0.7,0,1,0v0.3l-0.5,0.1
				c-0.6,0.8-1.7,2.7-2.1,3.4V82.5z"/>
		</g>
	</g>
</g>
<g id="Layer_2" class="st0">
	<g class="st1">
		<g>
			<path d="M106.1,48.2c-1,0-1,0-1,0.7v2.9c0,2.2,0.1,2.5,1.3,2.6l0.6,0.1c0.1,0.1,0.1,0.5,0,0.5c-1.1,0-1.8-0.1-2.6-0.1
				c-0.9,0-1.6,0-2.4,0.1c-0.1-0.1-0.2-0.4,0-0.5l0.4-0.1c1.2-0.2,1.2-0.4,1.2-2.6v-7.5c0-2.2-0.1-2.5-1.2-2.6l-0.5,0
				c-0.1-0.1-0.1-0.5,0-0.5c1,0,1.7,0.1,2.6,0.1c0.8,0,1.5,0,2.4-0.1c0.1,0.1,0.2,0.4,0,0.5l-0.4,0c-1.2,0.1-1.2,0.4-1.2,2.6v2.4
				c0,0.6,0,0.7,1,0.7h5.9c1,0,1,0,1-0.7v-2.4c0-2.2,0-2.5-1.3-2.6l-0.4,0c-0.1-0.1-0.1-0.5,0-0.5c1,0,1.7,0.1,2.5,0.1
				c0.8,0,1.5,0,2.5-0.1c0.1,0.1,0.2,0.4,0,0.5l-0.4,0c-1.2,0.1-1.2,0.4-1.2,2.6v7.5c0,2.2,0,2.5,1.2,2.6l0.5,0.1
				c0.1,0.1,0.1,0.5,0,0.5c-1,0-1.7-0.1-2.5-0.1c-0.9,0-1.6,0-2.5,0.1c-0.1-0.1-0.2-0.4,0-0.5l0.4-0.1c1.3-0.2,1.2-0.4,1.3-2.6v-2.9
				c0-0.6,0-0.7-1-0.7H106.1z"/>
			<path d="M126.9,50.1c-0.1-0.5-0.2-0.5-0.9-0.5h-3.1c-0.5,0-0.6,0.1-0.8,0.5l-0.7,2.2c-0.3,0.9-0.5,1.5-0.5,1.7
				c0,0.2,0.1,0.4,0.6,0.4l0.7,0.1c0.1,0.1,0.1,0.4,0,0.5c-0.5,0-1.2,0-2.2-0.1c-0.7,0-1.4,0-2,0.1c-0.1-0.1-0.2-0.4,0-0.5l0.7-0.1
				c0.5,0,1-0.3,1.2-1c0.4-1,1-2.3,1.8-4.6l2.1-5.6c0.3-0.7,0.4-1.1,0.4-1.5c0.5-0.1,0.9-0.5,1.1-0.8c0.1,0,0.3,0,0.3,0.2
				c0.3,0.9,0.6,1.9,0.9,2.8l2.8,8.4c0.6,1.8,0.9,2.1,1.8,2.2l0.6,0.1c0.1,0.1,0.1,0.4,0,0.5c-0.9,0-1.6-0.1-2.5-0.1
				c-1,0-1.8,0-2.4,0.1c-0.2-0.1-0.2-0.4,0-0.5l0.6-0.1c0.4,0,0.7-0.2,0.7-0.4c0-0.2-0.1-0.6-0.3-1.1L126.9,50.1z M122.8,48.3
				c-0.2,0.5-0.1,0.5,0.4,0.5h2.6c0.6,0,0.6-0.1,0.5-0.6l-1.1-3.4c-0.2-0.5-0.4-1.1-0.5-1.3h0c-0.1,0.1-0.3,0.6-0.5,1.2L122.8,48.3z
				"/>
			<path d="M135.1,44.4c0-2-0.1-2.3-0.9-2.4l-0.7-0.1c-0.1-0.1-0.1-0.4,0-0.5c1.2-0.1,2.6-0.2,4.6-0.2c1.3,0,2.5,0.1,3.5,0.6
				c1,0.5,1.7,1.5,1.7,2.9c0,2-1.6,3.1-2.6,3.5c-0.1,0.1,0,0.3,0.1,0.5c1.7,2.7,2.8,4.3,4.2,5.5c0.4,0.3,0.9,0.5,1.4,0.6
				c0.1,0,0.1,0.2,0,0.3c-0.2,0.1-0.5,0.1-0.9,0.1c-1.8,0-2.8-0.5-4.3-2.6c-0.5-0.8-1.4-2.2-2-3.1c-0.3-0.5-0.6-0.7-1.5-0.7
				c-0.9,0-1,0-1,0.5v2.6c0,2.2,0,2.4,1.2,2.6l0.4,0.1c0.1,0.1,0.1,0.5,0,0.5c-0.9,0-1.6-0.1-2.5-0.1c-0.9,0-1.6,0-2.6,0.1
				c-0.1-0.1-0.2-0.4,0-0.5l0.5-0.1c1.2-0.1,1.2-0.4,1.2-2.6V44.4z M136.8,47.4c0,0.4,0,0.6,0.1,0.7c0.1,0.1,0.4,0.1,1.4,0.1
				c0.7,0,1.5-0.1,2.1-0.5c0.6-0.4,1-1.2,1-2.6c0-1.6-1-3.2-3.3-3.2c-1.3,0-1.4,0.1-1.4,0.7V47.4z"/>
			<path d="M149.7,42.7c1.5-1.2,3.5-1.8,5.6-1.8c1.1,0,2.7,0.2,3.7,0.5c0.2,0.1,0.4,0.1,0.6,0.1c0,0.5,0.1,1.8,0.3,3.1
				c-0.1,0.1-0.4,0.2-0.6,0c-0.3-1.4-1.2-3-4.3-3c-3.2,0-5.9,2-5.9,6.3c0,4.4,2.8,6.8,6.2,6.8c2.7,0,3.9-1.7,4.3-3
				c0.1-0.1,0.5-0.1,0.5,0.1c-0.1,1.1-0.7,2.5-1,2.8c-0.2,0-0.5,0.1-0.7,0.2c-0.5,0.2-2,0.5-3.3,0.5c-1.9,0-3.7-0.4-5.2-1.4
				c-1.7-1.1-3-3-3-5.7C147.1,45.9,148.1,43.9,149.7,42.7z"/>
			<path d="M174.2,46.5c0-1.3,0-3.7-0.4-4.3c-0.1-0.2-0.5-0.4-1-0.4l-0.5,0c-0.1-0.1-0.1-0.4,0-0.5c0.8,0,1.6,0.1,2.4,0.1
				c0.9,0,1.4,0,2.2-0.1c0.2,0.1,0.1,0.4,0,0.5l-0.5,0c-0.5,0-0.9,0.2-1,0.5c-0.3,0.7-0.3,3.1-0.3,4.2v2.4c0,1.8-0.3,3.7-1.5,5
				c-0.9,1-2.4,1.5-4,1.5c-1.4,0-2.9-0.3-3.9-1.1c-1.1-0.9-1.6-2.4-1.6-4.9v-4.9c0-2.2,0-2.5-1.2-2.6l-0.5,0c-0.1-0.1-0.1-0.4,0-0.5
				c1,0,1.7,0.1,2.6,0.1c0.9,0,1.5,0,2.6-0.1c0.1,0.1,0.2,0.4,0,0.5l-0.5,0c-1.2,0.1-1.2,0.5-1.2,2.6v4.5c0,3.3,1,5.6,4.2,5.6
				c3,0,4.2-2.4,4.2-5.5V46.5z"/>
			<path d="M186.3,49.4c0.5,1,0.9,1.9,1.4,2.8h0c0.6-1,1.1-2.1,1.6-3.1l2-4c1-1.9,1.5-3,1.6-4c0.7,0.1,1.1,0.1,1.6,0.1
				c0.5,0,1.2,0,1.9-0.1c0.1,0.1,0.1,0.4,0,0.5l-0.4,0c-1.3,0.1-1.5,0.5-1.5,2c0,2.2,0.1,6.1,0.2,9c0.1,1,0,1.6,1,1.7l0.7,0.1
				c0.1,0.1,0.1,0.4,0,0.5c-0.9,0-1.7-0.1-2.5-0.1c-0.7,0-1.7,0-2.5,0.1c-0.1-0.1-0.2-0.4,0-0.5l0.6-0.1c1-0.1,1-0.4,1-1.8l-0.1-8.7
				h0c-0.1,0.2-0.9,1.9-1.4,2.7l-1.9,3.6c-0.9,1.8-1.9,3.8-2.2,4.7c0,0.1-0.1,0.1-0.2,0.1c0,0-0.1,0-0.2-0.1
				c-0.4-1.1-1.4-3.1-1.8-4.2l-1.9-4c-0.4-1-0.9-2-1.3-3h0c-0.1,1.3-0.1,2.5-0.2,3.7c-0.1,1.3-0.1,3.1-0.1,4.9
				c0,1.5,0.1,1.9,0.9,1.9l0.8,0.1c0.1,0.1,0.1,0.5,0,0.5c-0.7,0-1.5-0.1-2.3-0.1c-0.7,0-1.4,0-2.1,0.1c-0.1-0.1-0.2-0.4,0-0.5
				l0.5-0.1c0.9-0.1,1.2-0.2,1.3-1.7c0.1-1.4,0.2-2.5,0.4-4.6c0.1-1.7,0.2-3.5,0.2-4.6c0-1.3-0.1-1.6-1.4-1.8l-0.3,0
				c-0.1-0.1-0.1-0.4,0.1-0.5c0.6,0,1.1,0.1,1.6,0.1c0.5,0,1,0,1.7-0.1c-0.1,0.8,0.4,2.1,1.1,3.4L186.3,49.4z"/>
			<path d="M208,42.7c1.5-1.2,3.5-1.8,5.6-1.8c1.1,0,2.7,0.2,3.7,0.5c0.2,0.1,0.4,0.1,0.6,0.1c0,0.5,0.1,1.8,0.3,3.1
				c-0.1,0.1-0.4,0.2-0.6,0c-0.3-1.4-1.2-3-4.3-3c-3.2,0-5.9,2-5.9,6.3c0,4.4,2.8,6.8,6.2,6.8c2.7,0,3.9-1.7,4.3-3
				c0.1-0.1,0.5-0.1,0.5,0.1c-0.1,1.1-0.7,2.5-1,2.8c-0.2,0-0.5,0.1-0.7,0.2c-0.5,0.2-2,0.5-3.3,0.5c-1.9,0-3.7-0.4-5.2-1.4
				c-1.7-1.1-3-3-3-5.7C205.4,45.9,206.4,43.9,208,42.7z"/>
			<path d="M220.9,48.2c0-4.2,3.1-7.3,7.4-7.3c4.8,0,7.2,3.5,7.2,7.1c0,4.2-3.2,7.3-7.2,7.3C223.7,55.3,220.9,52,220.9,48.2z
				 M233.4,48.7c0-3.4-1.5-7.1-5.5-7.1c-2.2,0-5,1.5-5,6c0,3.1,1.5,7.1,5.6,7.1C231.1,54.7,233.4,52.8,233.4,48.7z"/>
			<path d="M240.2,44.4c0-2.2,0-2.5-1.4-2.6l-0.5,0c-0.1-0.1-0.1-0.5,0-0.5c1.2,0,1.9,0.1,2.7,0.1c0.8,0,1.5,0,2.6-0.1
				c0.1,0.1,0.2,0.4,0,0.5l-0.5,0c-1.2,0.1-1.3,0.4-1.3,2.6v7.2c0,1.3,0.1,1.9,0.4,2.2c0.2,0.2,0.6,0.5,2.3,0.5
				c1.8,0,2.2-0.1,2.5-0.3c0.4-0.2,1-1,1.4-2.1c0.1-0.1,0.5,0,0.5,0.1c0,0.2-0.6,2.4-0.9,2.9c-1.1,0-3-0.1-5.2-0.1H241
				c-0.9,0-1.5,0-2.7,0.1c-0.1-0.1-0.2-0.4,0-0.5l0.6-0.1c1.2-0.1,1.2-0.4,1.2-2.6V44.4z"/>
			<path d="M252.7,44.4c0-2.2,0-2.5-1.4-2.6l-0.5,0c-0.1-0.1-0.1-0.5,0-0.5c1.2,0,1.9,0.1,2.7,0.1c0.8,0,1.5,0,2.6-0.1
				c0.1,0.1,0.2,0.4,0,0.5l-0.5,0c-1.2,0.1-1.3,0.4-1.3,2.6v7.2c0,1.3,0.1,1.9,0.4,2.2c0.2,0.2,0.6,0.5,2.3,0.5
				c1.8,0,2.2-0.1,2.5-0.3c0.4-0.2,1-1,1.4-2.1c0.1-0.1,0.5,0,0.5,0.1c0,0.2-0.6,2.4-0.9,2.9c-1.1,0-3-0.1-5.2-0.1h-1.9
				c-0.9,0-1.5,0-2.7,0.1c-0.1-0.1-0.2-0.4,0-0.5l0.6-0.1c1.2-0.1,1.2-0.4,1.2-2.6V44.4z"/>
			<path d="M265.2,44.4c0-2.2,0-2.5-1.3-2.6l-0.3,0c-0.1-0.1-0.1-0.5,0-0.5c0.9,0,1.6,0.1,2.5,0.1h3.9c1.3,0,2.6,0,2.8-0.1
				c0.1,0.4,0.2,1.8,0.3,2.8c-0.1,0.1-0.4,0.2-0.5,0c-0.3-1-0.5-1.7-1.6-2c-0.4-0.1-1.1-0.1-2-0.1h-1.5c-0.6,0-0.6,0-0.6,0.8v4.2
				c0,0.6,0.1,0.6,0.7,0.6h1.2c0.9,0,1.5,0,1.8-0.1c0.2-0.1,0.4-0.2,0.5-0.7l0.2-0.9c0.1-0.1,0.5-0.1,0.5,0c0,0.5-0.1,1.3-0.1,2.1
				c0,0.7,0.1,1.5,0.1,2c-0.1,0.1-0.4,0.1-0.5,0l-0.2-0.8c-0.1-0.4-0.2-0.7-0.6-0.8c-0.3-0.1-0.8-0.1-1.6-0.1h-1.2
				c-0.6,0-0.7,0-0.7,0.6v2.9c0,1.1,0.1,1.8,0.4,2.2c0.2,0.2,0.7,0.5,2.5,0.5c1.6,0,2.2-0.1,2.7-0.3c0.4-0.2,0.9-0.9,1.5-2
				c0.1-0.1,0.4,0,0.5,0.1c-0.1,0.7-0.7,2.3-0.9,2.9c-1.9,0-3.7-0.1-5.6-0.1h-1.9c-0.9,0-1.6,0-2.8,0.1c-0.1-0.1-0.2-0.4,0-0.5
				l0.7-0.1c1.2-0.1,1.3-0.4,1.3-2.6V44.4z"/>
			<path d="M289.2,52.8c0,0.8,0.1,1.3,0.5,1.5c0.1,0.1,0.1,0.2,0,0.2c-0.2,0-0.6,0.1-1,0.2c-1.1,0.3-2.6,0.5-3.7,0.5
				c-2.5,0-4.7-0.7-6.3-2.3c-1.2-1.2-1.9-2.9-1.9-4.7c0-1.8,0.6-3.6,1.9-4.9c1.4-1.5,3.5-2.4,6.6-2.4c1.2,0,2.3,0.2,2.6,0.3
				c0.4,0.1,1,0.2,1.3,0.2c0,0.7,0.1,1.8,0.3,3c-0.1,0.2-0.4,0.2-0.6,0.1c-0.6-2.2-2.1-3-4.3-3c-4,0-5.8,2.9-5.8,6
				c0,4,2.1,7.1,6.2,7.1c1.3,0,2.1-0.3,2.3-0.6c0.1-0.1,0.2-0.5,0.2-1.2V52c0-1.7-0.1-1.9-1.4-2l-0.9-0.1c-0.2-0.1-0.1-0.5,0-0.5
				c0.6,0,1.7,0.1,3,0.1c0.8,0,1.5,0,2.2-0.1c0.1,0.1,0.2,0.4,0,0.5l-0.3,0c-0.9,0.1-0.9,0.7-0.9,1.7V52.8z"/>
			<path d="M295,44.4c0-2.2,0-2.5-1.3-2.6l-0.3,0c-0.1-0.1-0.1-0.5,0-0.5c0.9,0,1.6,0.1,2.5,0.1h3.9c1.3,0,2.6,0,2.8-0.1
				c0.1,0.4,0.2,1.8,0.3,2.8c-0.1,0.1-0.4,0.2-0.5,0c-0.3-1-0.5-1.7-1.6-2c-0.4-0.1-1.1-0.1-2-0.1h-1.5c-0.6,0-0.6,0-0.6,0.8v4.2
				c0,0.6,0.1,0.6,0.7,0.6h1.2c0.9,0,1.5,0,1.8-0.1c0.2-0.1,0.4-0.2,0.5-0.7l0.2-0.9c0.1-0.1,0.5-0.1,0.5,0c0,0.5-0.1,1.3-0.1,2.1
				c0,0.7,0.1,1.5,0.1,2c-0.1,0.1-0.4,0.1-0.5,0l-0.2-0.8c-0.1-0.4-0.2-0.7-0.6-0.8c-0.3-0.1-0.8-0.1-1.6-0.1h-1.2
				c-0.6,0-0.7,0-0.7,0.6v2.9c0,1.1,0.1,1.8,0.4,2.2c0.2,0.2,0.7,0.5,2.5,0.5c1.6,0,2.2-0.1,2.7-0.3c0.4-0.2,0.9-0.9,1.5-2
				c0.1-0.1,0.4,0,0.5,0.1c-0.1,0.7-0.7,2.3-0.9,2.9c-1.9,0-3.7-0.1-5.6-0.1h-1.9c-0.9,0-1.6,0-2.8,0.1c-0.1-0.1-0.2-0.4,0-0.5
				l0.7-0.1c1.2-0.1,1.3-0.4,1.3-2.6V44.4z"/>
		</g>
		<g>
			<path class="st3" d="M49.1,24.3c-0.5-1-0.4-1.8-0.4-2.4c-0.3,0-0.5,0-0.7,0c-0.1,0.6-0.1,1.7,0.5,2.8
				C48.7,24.6,48.9,24.5,49.1,24.3z"/>
			<path class="st3" d="M47.4,21.9c-0.4,0-0.8-0.1-0.8-0.1s-0.3,1.7,0.7,3.5c0.2-0.1,0.4-0.2,0.6-0.4C47.2,23.7,47.3,22.4,47.4,21.9
				z"/>
			<path class="st3" d="M51.5,22.6c-0.1-0.4-0.2-0.9-0.2-1.2c-0.2,0.1-0.5,0.1-0.8,0.2c0,0.4,0.1,1,0.3,1.5
				C51.1,22.9,51.3,22.7,51.5,22.6z"/>
			<path class="st3" d="M50.3,23.5C50,22.8,50,22.2,50,21.7c0,0,0,0-0.1,0c-0.2,0-0.5,0.1-0.7,0.1c0,0.5,0,1.3,0.4,2.1
				C49.9,23.8,50.1,23.7,50.3,23.5z"/>
			<g>
				<path class="st3" d="M48.8,21.9c-0.3,0-0.5,0-0.7,0c-0.1,0.6-0.1,1.7,0.5,2.8c0.2-0.1,0.4-0.3,0.6-0.4
					C48.7,23.4,48.7,22.5,48.8,21.9z"/>
				<path class="st3" d="M47.4,21.9c-0.4,0-0.8-0.1-0.8-0.1s-0.3,1.7,0.7,3.5c0.2-0.1,0.4-0.2,0.6-0.4
					C47.2,23.7,47.3,22.4,47.4,21.9z"/>
				<path class="st3" d="M53.8,21c0.3,0,0.5-0.2,0.5-0.5c0-0.3-0.2-0.5-0.5-0.5c-0.3,0-0.5,0.2-0.5,0.5C53.3,20.8,53.5,21,53.8,21z"
					/>
				<path class="st3" d="M50.6,21.6c0,0.4,0.1,1,0.3,1.5c0.2-0.2,0.5-0.4,0.7-0.5c-0.1-0.4-0.2-0.9-0.2-1.2
					C51.1,21.4,50.9,21.5,50.6,21.6z"/>
				<path class="st3" d="M50,21.7C50,21.7,49.9,21.7,50,21.7c-0.3,0.1-0.5,0.1-0.8,0.1c0,0.5,0,1.3,0.4,2.1c0.2-0.2,0.4-0.3,0.6-0.5
					C50,22.8,50,22.2,50,21.7z"/>
				<path class="st3" d="M84.3,40.3c-1.2-0.2-1.9-1.4-2.3-2.7c-0.4-1.3-0.3-2.6-0.3-2.6s1.7,4.4,4.4,2.8c1.5-0.9,0.4-3,0.4-3
					s-2.2,2.1-3.3-0.4c-0.2-0.5-0.8-2.3-0.9-2.8c1.7-0.7,3.6-1.9,4.2-4.3c1.4-5.6-3.9-9.4-5.7-10.5c2.4-0.7,2.6-2.2,2-3
					c-0.5-0.7-1.7-0.7-1.7-0.7s-0.4,3-3.7,2.8c0.9-0.4,2-1.5,1.3-2.7c-0.7-1.2-2-0.6-2.2,0.1c0,0,2.2,1.4-0.7,2.6
					c-0.4-0.1-3.9,0.2-6.8,1c0.1-0.6,0.4-1.5,0.7-2c0.7-0.9,1.9-1.3,2.8-0.6c0.4,0.3,0.6,0.7,0.7,1.2c0.1-0.1,0.3-0.3,0.3-0.4
					c0.8-1.1,0.3-2.4-0.7-3c-1.2-0.9-2.9-0.4-3.9,0.8c-0.4-2.1-2-3.9-3.7-3.9c-3.8-0.1-3.9,3.2-3.9,3.2s4-1.8,4.7,1.5
					c0.4,1.6-0.5,2.8-1.7,3.7c0.7-1.5,0.2-3.3-1-3.7c-2.1-0.6-2.6,1.2-2.6,1.2s2.4-0.1,2.2,1.8c-0.2,1.6-2.6,2.1-4.6,2.3
					c-1.1-1.6-3.1-2.7-5.4-2.7c-2.3,0-4.4,1.1-5.5,2.8c-2-0.1-4.7-0.6-4.9-2.3c-0.2-1.9,2.2-1.8,2.2-1.8s-0.6-1.8-2.6-1.2
					c-1.2,0.4-1.7,2.1-1,3.7c-1.3-0.9-2.1-2.1-1.7-3.7c0.8-3.3,4.7-1.5,4.7-1.5s-0.1-3.3-3.9-3.2c-1.7,0-3.3,1.8-3.7,3.9
					c-1-1.2-2.7-1.7-3.9-0.8c-0.9,0.7-1.4,2-0.7,3c0.1,0.1,0.2,0.3,0.3,0.4c0.1-0.5,0.3-0.9,0.7-1.2c0.9-0.6,2.2-0.3,2.8,0.6
					c0.4,0.5,0.6,1.4,0.7,2c-3-0.8-6.4-1.1-6.8-1c-2.9-1.2-0.7-2.6-0.7-2.6c-0.2-0.6-1.5-1.2-2.2-0.1c-0.7,1.2,0.3,2.3,1.3,2.7
					c-3.3,0.2-3.7-2.8-3.7-2.8s-1.2,0-1.7,0.7c-0.5,0.8-0.3,2.3,2,3c-1.7,1.1-7.1,4.9-5.6,10.5c0.6,2.4,2.5,3.6,4.2,4.3
					c-0.1,0.5-0.7,2.2-0.9,2.8c-1.1,2.5-3.3,0.4-3.3,0.4s-1.2,2.1,0.4,3c2.7,1.6,4.4-2.8,4.4-2.8s0.1,1.3-0.3,2.6
					c-0.4,1.2-1.1,2.5-2.3,2.7c-1.2,0.2-2.7-0.4-2.7-0.4s0.4,3.7,3,3.7c2.6,0,3.8-4.5,3.7-5.2c0-0.7,1.3,4,1.3,4.8
					c0,0.8,0.1,2.3-0.8,2.2c-1,0-1.4-0.6-1.4-0.6s0.2,1.5,1.4,1.6c1.2,0,1.3-1.2,1.3-1.2s0.4,1.3,0,2.6c-0.3,1.3-0.6,2.3-0.4,3.3
					c0.4,2.8,2.9,3.2,2.9,3.2s-1.4-2.8-0.7-4.2c0.7-1.4,1.6-2.4,1.6-4.6c0-1.8-1.9-4.6-1.9-4.6c3.2,1.1,2-1.7,2-1.7s-1.4,1-4-0.9
					c2.9,0.6,3.6-1,3.3-2.1c-0.2-0.8-1-1.5-1-1.5s-0.6,1.2-1.5,1c-1.3-0.3-3.2-2.1-2.4-3.5c3.2,0.4,6.6-0.9,8.4-2.8
					c0.6-0.2,3.1-1.2,4.2-0.9c1.4,0.3,1.7,2.4,1.7,2.4s2.4-0.7,2.4-2.7c0-1.8-1.4-3-3.3-3c-1.7,0-2.1,0.6-3.1,1.4
					c0.1-0.2,0.4-2.1,2.9-2.6c2-0.3,4.3,0.1,4.3,0.1s-4.4-5.2-7.9,0.7c0,0-1.6-3-5-2c-1.8,0.6-3.2,2.4-3.2,2.4s1.1,0.2,1.7,0.5
					c3,2-3.4,6.4-5.7,0.5c-1.2-4.3,2-6.4,3.8-7.7c-0.5,1.1,0.1,2.8,2,2.6c-2.2-3.5,4-5.3,10-2.8c-4.9-0.7-6.6,0.2-6.8,1.6
					c-0.4,2.6,3.3,2.3,3.3,2.3s-1.9-2.1,0.7-2.8c2.5-0.7,4.6,0.6,7.5,1.4c0.6,0.2,1.3,0.3,1.9,0.4c-0.1,1.6,0.1,4,1.8,6l0.5,0.6
					c0.3,0,1.5-0.6,2.3-1l-0.4,1.1c-0.4-0.1-0.7,0.2-0.8,0.5c0,0.2,0,0.4,0.1,0.5L47.8,30c-0.2,0-0.5,0.1-0.7,0.2l0,0
					c-1,0.4-2.2,2-2.4,2.3L44.2,33h-12l0,0h-3.8l3.2,2.2l0,0l4.1,3v29.6v0.8v0l0,0c0,0.2,0.1,1.8,1.8,3.3c1.3,1.1,2.2,1.6,4.2,1.6
					c0.2,0,0.5,0,0.8,0c1.2-0.1,2.3-0.3,3.2-0.5c0.8-0.2,1.4-0.4,2.1-0.4h0l0,0c0.1,0,0.3,0,0.4,0c2.4,0,3.7,1.4,3.8,1.5l0.3,0.4
					c0.2,0.3,0.6,1.2,0.6,1.2s0.4-1,0.6-1.3c0,0,0,0,0,0l0.3-0.4c0.1-0.1,1.5-1.5,3.8-1.5c0.1,0,0.3,0,0.4,0l0,0h0
					c0.7,0,1.3,0.2,2.1,0.4c0.9,0.2,1.9,0.5,3.2,0.5c0.3,0,0.5,0,0.8,0c2,0,2.9-0.5,4.2-1.6c1.7-1.4,1.7-3.1,1.8-3.3v0v0v-0.7V38
					l3.8-2.8l0,0L77,33h-3.8l0,0h-8.8L64,32.4c-0.2-0.3-2-2.6-3.4-3.2l-0.1,0l-0.1,0c-0.2,0-0.4-0.1-0.5-0.1
					c-0.3-0.2-0.8-0.6-1.5-0.7c-0.1-0.1-0.2-0.1-0.2-0.2c0-0.1,0-0.3,0-0.4c-0.1-0.3-0.4-0.5-0.7-0.4c-0.2-0.7-0.3-1.4-0.3-1.8
					c1.3-1,2-2.3,2-4c1-0.1,2.2-0.2,3.3-0.6c2.9-0.9,5-2.1,7.5-1.4c2.6,0.7,0.7,2.8,0.7,2.8s3.7,0.2,3.3-2.3
					c-0.2-1.4-1.9-2.3-6.8-1.6c5.9-2.5,12.2-0.7,10,2.8c1.9,0.2,2.5-1.5,2-2.6c1.8,1.3,5,3.4,3.8,7.7c-2.3,5.9-8.7,1.6-5.7-0.5
					c0.6-0.4,1.7-0.5,1.7-0.5s-1.4-1.8-3.2-2.4c-3.4-1-5,2-5,2c-3.5-5.9-7.9-0.7-7.9-0.7s2.2-0.4,4.3-0.1c2.5,0.4,2.7,2.3,2.9,2.6
					c-1-0.8-1.4-1.4-3.1-1.4c-1.9,0-3.3,1.2-3.3,3c0,1.9,2.4,2.7,2.4,2.7s0.3-2.1,1.7-2.4c1.2-0.3,3.6,0.7,4.2,0.9
					c1.9,2,5.3,3.3,8.4,2.8c0.8,1.5-1.1,3.3-2.4,3.5c-0.9,0.2-1.5-1-1.5-1s-0.8,0.7-1,1.5c-0.3,1.1,0.4,2.7,3.3,2.1
					c-2.6,1.9-4,0.9-4,0.9s-1.2,2.8,2,1.7c0,0-1.9,2.9-1.9,4.6c0,2.2,1,3.2,1.6,4.6c0.6,1.4-0.7,4.2-0.7,4.2s2.5-0.4,2.9-3.2
					c0.2-1,0-2.1-0.4-3.3c-0.3-1.3,0-2.6,0-2.6s0,1.3,1.3,1.2c1.2,0,1.4-1.6,1.4-1.6s-0.4,0.5-1.4,0.6c-1,0-0.8-1.5-0.8-2.2
					c0-0.8,1.3-5.5,1.3-4.8c0,0.7,1.1,5.2,3.7,5.2c2.6,0,3-3.7,3-3.7S85.5,40.5,84.3,40.3z M47.4,26.8c-2.2-2.5-1.5-6-1.4-6.7
					c0.6,0.2,1.7,0.5,3.1,0.5c1,0,2.1-0.1,3.2-0.6c-0.1,0.1-0.1,0.3-0.1,0.5c0,0.8,0.6,1.4,1.4,1.5C52.4,23.6,50.4,25.4,47.4,26.8z
					 M52.5,20.5c0-0.7,0.6-1.3,1.3-1.3c0.7,0,1.3,0.6,1.3,1.3c0,0.7-0.6,1.3-1.3,1.3C53.1,21.8,52.5,21.2,52.5,20.5z M43.5,34.2h1.3
					V42h-1.3V34.2z M41.3,34.2h1.3V42h-1.3V34.2z M39.1,34.2h1.3V42h-1.3V34.2z M36.9,34.2h1.3V42h-1.3V34.2z M33.9,35.4l-1.7-1.2
					h1.7V35.4z M36.1,37l-1.3-1v-1.8h1.3V37z M68.9,67.9v0.7c0,0,0,1.3-1.3,2.4c-1.2,1-1.8,1.3-3.4,1.3c-0.2,0-0.4,0-0.7,0
					c-2.1-0.1-3.7-0.9-5.3-0.9c-0.2,0-0.3,0-0.5,0c-3.1,0-4.8,1.9-4.8,1.9h0c0,0-1.7-1.9-4.8-1.9c-0.1,0-0.3,0-0.5,0
					c-1.6,0-3.2,0.8-5.3,0.9c-0.3,0-0.5,0-0.7,0c-1.6,0-2.2-0.3-3.4-1.3c-1.3-1.1-1.4-2.4-1.4-2.4v-0.8v-5.4h32L68.9,67.9z
					 M68.9,61.3h-32v-5.2h32V61.3z M36.9,54.9v-5.3h1.3v5.3H36.9z M39.1,54.9v-5.3h1.3v5.3H39.1z M41.3,54.9v-5.3h1.3v5.3H41.3z
					 M43.5,54.9v-5.3h1.3v5.3H43.5z M45.7,54.9v-5.3H47v5.3H45.7z M47.8,54.9v-5.3h1.3v5.3H47.8z M50,54.9v-5.3h1.3v5.3H50z
					 M52.2,54.9v-5.3h1.3v5.3H52.2z M54.4,54.9v-5.3h1.3v5.3H54.4z M56.6,54.9v-5.3h1.3v5.3H56.6z M58.8,54.9v-5.3h1.3v5.3H58.8z
					 M61,54.9v-5.3h1.3v5.3H61z M63.2,54.9v-5.3h1.3v5.3H63.2z M65.3,54.9v-5.3h1.3v5.3H65.3z M67.5,54.9v-5.3h1.3v5.3H67.5z
					 M71.9,34.2h1.3l-1.3,1V34.2z M69.7,34.2H71v1.6l-1.3,1V34.2z M68.9,48.4h-32v-5.2h32V48.4z M45.7,42v-7.8H47V42H45.7z M47.8,42
					v-7.8h1.3V42H47.8z M50,42v-7.3c0.5,0.6,0.9,1.3,1.2,2.2l0.1,0.2l0,0V42H50z M52.2,42v-4.5c0.2,0,0.3,0,0.4-0.1l0.9-0.4V42H52.2
					z M54.4,42v-5.3l1.3-0.5V42H54.4z M56.6,42v-6.1l1.3-0.5V42H56.6z M58.8,42v-7l0.1,0l0.1-0.3c0.1-0.2,0.1-0.3,0.2-0.4h0.9V42
					H58.8z M61,42v-7.8h1.3V42H61z M67.5,34.2h1.3V42h-1.3V34.2z M65.3,34.2h1.3V42h-1.3V34.2z M64.5,34.2V42h-1.3v-7.8H64.5z
					 M60.3,30c1.3,0.5,3,2.9,3,2.9s-3.7-1.6-5.1,1.4l-6,2.3c0,0-0.1,0.1-0.2,0c-2.3-6-6.6-3.8-6.6-3.8l-0.2,0c0,0,1.2-1.7,2-2
					c0.3-0.1,0.5-0.1,0.7-0.1c0.1,0,3.4,0.4,5.3,2.6l0.1,0.1l3.3-1.1l2.9-2.5C59.8,30,60.1,30,60.3,30z M58.1,29.2
					c0.5,0,0.9,0.2,1.2,0.4L56.5,32L53.6,33c-1.6-1.8-4-2.4-5.1-2.6l0.8-0.9c0.9,0.2,1.7,0.2,2.5,0.2c2.6,0,4.8-0.6,5.6-0.9
					C57.7,28.9,58,29,58.1,29.2z M57.5,27.8c0.1,0,0.3,0,0.3,0.1c0,0.1,0,0.3-0.1,0.3c-0.1,0-2.7,1-5.8,1c-0.9,0-1.9-0.1-2.8-0.3
					c-0.1,0-0.2-0.2-0.2-0.3c0-0.1,0.2-0.2,0.3-0.2C53.3,29.4,57.5,27.8,57.5,27.8z M56.5,25c-0.3,0.6,0,1.8,0.2,2.6
					c-1.2,0.4-3.8,1-6.6,0.6l0.7-2.5c0,0,0,0,0,0c1.7-1.3,2.6-2.6,3.3-3.6c0.7-0.2,1.3-0.8,1.3-1.6c0-0.9-0.7-1.6-1.6-1.6
					c-0.3,0-0.6,0.1-0.8,0.2c0,0,0,0,0,0c0,0-0.1,0-0.1,0.1c0,0,0,0,0,0c0,0,0,0-0.1,0c0,0,0,0-0.1,0.1c0,0,0,0,0,0c0,0,0,0-0.1,0.1
					c-1.8,0.7-3.6,0.8-4.9,0.6c0.7-1.9,2.7-3.2,5.2-3.2c3,0,5.4,2.1,5.4,4.6C58.4,23,57.8,24.2,56.5,25z"/>
			</g>
			<path class="st3" d="M53,13.3"/>
			<g>
				<path class="st3" d="M38.9,45.3c-0.3,0-0.6,0.2-0.6,0.6c0,0.3,0.3,0.6,0.6,0.6c0.3,0,0.6-0.2,0.6-0.6
					C39.5,45.5,39.2,45.3,38.9,45.3z"/>
				<path class="st3" d="M42.9,45.3c-0.3,0-0.6,0.2-0.6,0.6c0,0.3,0.3,0.6,0.6,0.6c0.3,0,0.6-0.2,0.6-0.6
					C43.5,45.5,43.2,45.3,42.9,45.3z"/>
				<path class="st3" d="M46.9,45.3c-0.3,0-0.6,0.2-0.6,0.6c0,0.3,0.3,0.6,0.6,0.6c0.3,0,0.6-0.2,0.6-0.6
					C47.5,45.5,47.2,45.3,46.9,45.3z"/>
				<path class="st3" d="M50.9,45.3c-0.3,0-0.6,0.2-0.6,0.6c0,0.3,0.2,0.6,0.6,0.6c0.3,0,0.6-0.2,0.6-0.6
					C51.4,45.5,51.2,45.3,50.9,45.3z"/>
				<path class="st3" d="M54.9,45.3c-0.3,0-0.6,0.2-0.6,0.6c0,0.3,0.2,0.6,0.6,0.6c0.3,0,0.6-0.2,0.6-0.6
					C55.4,45.5,55.2,45.3,54.9,45.3z"/>
				<path class="st3" d="M58.9,45.3c-0.3,0-0.6,0.2-0.6,0.6c0,0.3,0.2,0.6,0.6,0.6c0.3,0,0.6-0.2,0.6-0.6
					C59.4,45.5,59.2,45.3,58.9,45.3z"/>
				<path class="st3" d="M62.8,45.3c-0.3,0-0.6,0.2-0.6,0.6c0,0.3,0.2,0.6,0.6,0.6c0.3,0,0.6-0.2,0.6-0.6
					C63.4,45.5,63.2,45.3,62.8,45.3z"/>
				<path class="st3" d="M66.8,45.3c-0.3,0-0.6,0.2-0.6,0.6c0,0.3,0.2,0.6,0.6,0.6c0.3,0,0.6-0.2,0.6-0.6
					C67.4,45.5,67.1,45.3,66.8,45.3z"/>
				<path class="st3" d="M40.9,43.9c-0.3,0-0.6,0.3-0.6,0.6c0,0.3,0.3,0.6,0.6,0.6c0.3,0,0.6-0.2,0.6-0.6
					C41.5,44.2,41.2,43.9,40.9,43.9z"/>
				<path class="st3" d="M44.9,43.9c-0.3,0-0.6,0.3-0.6,0.6c0,0.3,0.2,0.6,0.6,0.6c0.3,0,0.6-0.2,0.6-0.6
					C45.4,44.2,45.2,43.9,44.9,43.9z"/>
				<path class="st3" d="M48.9,43.9c-0.3,0-0.6,0.3-0.6,0.6c0,0.3,0.2,0.6,0.6,0.6c0.3,0,0.6-0.2,0.6-0.6
					C49.4,44.2,49.2,43.9,48.9,43.9z"/>
				<path class="st3" d="M52.9,43.9c-0.3,0-0.6,0.3-0.6,0.6c0,0.3,0.3,0.6,0.6,0.6c0.3,0,0.6-0.2,0.6-0.6
					C53.4,44.2,53.2,43.9,52.9,43.9z"/>
				<path class="st3" d="M56.8,43.9c-0.3,0-0.6,0.3-0.6,0.6c0,0.3,0.3,0.6,0.6,0.6c0.3,0,0.6-0.2,0.6-0.6
					C57.4,44.2,57.2,43.9,56.8,43.9z"/>
				<path class="st3" d="M60.8,43.9c-0.3,0-0.6,0.3-0.6,0.6c0,0.3,0.3,0.6,0.6,0.6c0.3,0,0.6-0.2,0.6-0.6
					C61.4,44.2,61.1,43.9,60.8,43.9z"/>
				<path class="st3" d="M64.8,43.9c-0.3,0-0.6,0.3-0.6,0.6c0,0.3,0.3,0.6,0.6,0.6c0.3,0,0.6-0.2,0.6-0.6
					C65.4,44.2,65.1,43.9,64.8,43.9z"/>
				<path class="st3" d="M40.9,46.6c-0.3,0-0.6,0.3-0.6,0.6c0,0.3,0.3,0.6,0.6,0.6c0.3,0,0.6-0.2,0.6-0.6
					C41.5,46.8,41.2,46.6,40.9,46.6z"/>
				<path class="st3" d="M44.9,46.6c-0.3,0-0.6,0.3-0.6,0.6c0,0.3,0.2,0.6,0.6,0.6c0.3,0,0.6-0.2,0.6-0.6
					C45.4,46.8,45.2,46.6,44.9,46.6z"/>
				<path class="st3" d="M48.9,46.6c-0.3,0-0.6,0.3-0.6,0.6c0,0.3,0.2,0.6,0.6,0.6c0.3,0,0.6-0.2,0.6-0.6
					C49.4,46.8,49.2,46.6,48.9,46.6z"/>
				<path class="st3" d="M52.9,46.6c-0.3,0-0.6,0.3-0.6,0.6c0,0.3,0.3,0.6,0.6,0.6c0.3,0,0.6-0.2,0.6-0.6
					C53.4,46.8,53.2,46.6,52.9,46.6z"/>
				<path class="st3" d="M56.8,46.6c-0.3,0-0.6,0.3-0.6,0.6c0,0.3,0.3,0.6,0.6,0.6c0.3,0,0.6-0.2,0.6-0.6
					C57.4,46.8,57.2,46.6,56.8,46.6z"/>
				<path class="st3" d="M60.8,46.6c-0.3,0-0.6,0.3-0.6,0.6c0,0.3,0.3,0.6,0.6,0.6c0.3,0,0.6-0.2,0.6-0.6
					C61.4,46.8,61.1,46.6,60.8,46.6z"/>
				<path class="st3" d="M64.8,46.6c-0.3,0-0.6,0.3-0.6,0.6c0,0.3,0.3,0.6,0.6,0.6c0.3,0,0.6-0.2,0.6-0.6
					C65.4,46.8,65.1,46.6,64.8,46.6z"/>
			</g>
			<g>
				<path class="st3" d="M38.9,58.1c-0.3,0-0.6,0.2-0.6,0.6c0,0.3,0.3,0.6,0.6,0.6c0.3,0,0.6-0.2,0.6-0.6
					C39.5,58.4,39.2,58.1,38.9,58.1z"/>
				<path class="st3" d="M42.9,58.1c-0.3,0-0.6,0.2-0.6,0.6c0,0.3,0.3,0.6,0.6,0.6c0.3,0,0.6-0.2,0.6-0.6
					C43.5,58.4,43.2,58.1,42.9,58.1z"/>
				<path class="st3" d="M46.9,58.1c-0.3,0-0.6,0.2-0.6,0.6c0,0.3,0.3,0.6,0.6,0.6c0.3,0,0.6-0.2,0.6-0.6
					C47.5,58.4,47.2,58.1,46.9,58.1z"/>
				<path class="st3" d="M50.9,58.1c-0.3,0-0.6,0.2-0.6,0.6c0,0.3,0.2,0.6,0.6,0.6c0.3,0,0.6-0.2,0.6-0.6
					C51.4,58.4,51.2,58.1,50.9,58.1z"/>
				<path class="st3" d="M54.9,58.1c-0.3,0-0.6,0.2-0.6,0.6c0,0.3,0.2,0.6,0.6,0.6c0.3,0,0.6-0.2,0.6-0.6
					C55.4,58.4,55.2,58.1,54.9,58.1z"/>
				<path class="st3" d="M58.9,58.1c-0.3,0-0.6,0.2-0.6,0.6c0,0.3,0.2,0.6,0.6,0.6c0.3,0,0.6-0.2,0.6-0.6
					C59.4,58.4,59.2,58.1,58.9,58.1z"/>
				<path class="st3" d="M62.8,58.1c-0.3,0-0.6,0.2-0.6,0.6c0,0.3,0.2,0.6,0.6,0.6c0.3,0,0.6-0.2,0.6-0.6
					C63.4,58.4,63.2,58.1,62.8,58.1z"/>
				<path class="st3" d="M66.8,58.1c-0.3,0-0.6,0.2-0.6,0.6c0,0.3,0.2,0.6,0.6,0.6c0.3,0,0.6-0.2,0.6-0.6
					C67.4,58.4,67.1,58.1,66.8,58.1z"/>
				<path class="st3" d="M40.9,56.8c-0.3,0-0.6,0.3-0.6,0.6c0,0.3,0.3,0.6,0.6,0.6c0.3,0,0.6-0.2,0.6-0.6
					C41.5,57.1,41.2,56.8,40.9,56.8z"/>
				<path class="st3" d="M44.9,56.8c-0.3,0-0.6,0.3-0.6,0.6c0,0.3,0.2,0.6,0.6,0.6c0.3,0,0.6-0.2,0.6-0.6
					C45.4,57.1,45.2,56.8,44.9,56.8z"/>
				<path class="st3" d="M48.9,56.8c-0.3,0-0.6,0.3-0.6,0.6c0,0.3,0.2,0.6,0.6,0.6c0.3,0,0.6-0.2,0.6-0.6
					C49.4,57.1,49.2,56.8,48.9,56.8z"/>
				<path class="st3" d="M52.9,56.8c-0.3,0-0.6,0.3-0.6,0.6c0,0.3,0.3,0.6,0.6,0.6c0.3,0,0.6-0.2,0.6-0.6
					C53.4,57.1,53.2,56.8,52.9,56.8z"/>
				<path class="st3" d="M56.8,56.8c-0.3,0-0.6,0.3-0.6,0.6c0,0.3,0.3,0.6,0.6,0.6c0.3,0,0.6-0.2,0.6-0.6
					C57.4,57.1,57.2,56.8,56.8,56.8z"/>
				<path class="st3" d="M60.8,56.8c-0.3,0-0.6,0.3-0.6,0.6c0,0.3,0.3,0.6,0.6,0.6c0.3,0,0.6-0.2,0.6-0.6
					C61.4,57.1,61.1,56.8,60.8,56.8z"/>
				<path class="st3" d="M64.8,56.8c-0.3,0-0.6,0.3-0.6,0.6c0,0.3,0.3,0.6,0.6,0.6c0.3,0,0.6-0.2,0.6-0.6
					C65.4,57.1,65.1,56.8,64.8,56.8z"/>
				<path class="st3" d="M40.9,59.4c-0.3,0-0.6,0.3-0.6,0.6c0,0.3,0.3,0.6,0.6,0.6c0.3,0,0.6-0.2,0.6-0.6
					C41.5,59.7,41.2,59.4,40.9,59.4z"/>
				<path class="st3" d="M44.9,59.4c-0.3,0-0.6,0.3-0.6,0.6c0,0.3,0.2,0.6,0.6,0.6c0.3,0,0.6-0.2,0.6-0.6
					C45.4,59.7,45.2,59.4,44.9,59.4z"/>
				<path class="st3" d="M48.9,59.4c-0.3,0-0.6,0.3-0.6,0.6c0,0.3,0.2,0.6,0.6,0.6c0.3,0,0.6-0.2,0.6-0.6
					C49.4,59.7,49.2,59.4,48.9,59.4z"/>
				<path class="st3" d="M52.9,59.4c-0.3,0-0.6,0.3-0.6,0.6c0,0.3,0.3,0.6,0.6,0.6c0.3,0,0.6-0.2,0.6-0.6
					C53.4,59.7,53.2,59.4,52.9,59.4z"/>
				<path class="st3" d="M56.8,59.4c-0.3,0-0.6,0.3-0.6,0.6c0,0.3,0.3,0.6,0.6,0.6c0.3,0,0.6-0.2,0.6-0.6
					C57.4,59.7,57.2,59.4,56.8,59.4z"/>
				<path class="st3" d="M60.8,59.4c-0.3,0-0.6,0.3-0.6,0.6c0,0.3,0.3,0.6,0.6,0.6c0.3,0,0.6-0.2,0.6-0.6
					C61.4,59.7,61.1,59.4,60.8,59.4z"/>
				<path class="st3" d="M64.8,59.4c-0.3,0-0.6,0.3-0.6,0.6c0,0.3,0.3,0.6,0.6,0.6c0.3,0,0.6-0.2,0.6-0.6
					C65.4,59.7,65.1,59.4,64.8,59.4z"/>
			</g>
			<g>
				<path class="st3" d="M57.6,12.8L57.5,13c0,0-0.4,0.6-1.2,0.6c-0.2,0-0.4,0-0.6-0.1c-1.3-0.3-1.1-1.5-1.1-1.5l0.1-0.4h-0.9
					c0-0.1,0-0.2,0-0.4c0-0.1,0.1-0.3,0.1-0.4c0-0.1-0.1-0.2-0.1-0.4c0-0.2,0-0.4,0-0.5c0.6,0,0.8,0,1.5-0.1c1,0.2,2.2,1.5,3.2,1.6
					c1,0.1,2.1-0.7,2.1-0.7c-0.3-0.9-2.9-0.7-4-1.5c-1.1-1.2-2.3-2.6-5.2-3.1c0-0.9,0.7-0.8,0.7-1.9c0-0.2-0.1-0.5-0.2-0.7
					c-0.1-0.5,0.6-0.2,0.6-0.2s0-0.7-0.8-0.9c-0.9-0.2-1.2,0.1-1.2,0.1s0.2,0,0.4,0.5c-1,0-1.2,0.8-1.2,0.8l-1.2,0.6
					c0,0,1.2,0.4,1.3,0.4s0.3,0.6,0.3,0.6s0.1,0.6-0.1,0.9c0,0-1.2,0.3-1.2,1.9c0,1.3,1.5,1.6,1.5,1.6s0.7,0.2,2.1,0.2
					c0,0.2,0.1,0.4,0,0.5c0,0.1-0.1,0.3-0.1,0.4c0,0.1,0.1,0.2,0.1,0.3c0,0.2,0,0.3,0,0.4h-0.9l0.1,0.4c0,0.1,0.1,1.2-1.1,1.5
					c-0.2,0.1-0.4,0.1-0.6,0.1c-0.9,0-1.2-0.6-1.2-0.6l-0.1-0.2l-2.6,0.5l3,3.2l0.2-0.2c1-0.7,2.2-1.1,3.5-1.1l0.7,0
					c1.3,0,2.6,0.4,3.6,1.2l0.2,0.2l3-3.2l-2.3-0.5L57.6,12.8z M52.7,10.5c0-0.2,0-0.4,0-0.5c0.2,0,0.2,0,0.5,0c0,0.2,0.1,0.4,0,0.5
					c0,0.1-0.1,0.3-0.1,0.4c0,0.1,0.1,0.2,0.1,0.3c0,0.2,0,0.3,0,0.4h-0.6c0-0.1,0-0.2,0-0.4c0-0.1,0.1-0.3,0.1-0.4
					C52.7,10.8,52.7,10.6,52.7,10.5z M58.7,13.8L57,15.6c-1.1-0.7-2.4-1.1-3.8-1.1v0H53h-0.2c-0.1,0-0.1,0-0.2,0h0
					c-1.4,0-2.7,0.4-3.8,1.1l-1.7-1.8l0.8-0.2c0.3,0.3,0.8,0.7,1.7,0.7c0.2,0,0.5,0,0.8-0.1c1.2-0.3,1.6-1.2,1.7-1.9h1.6
					c0.1,0.7,0.4,1.6,1.7,1.9c0.3,0.1,0.5,0.1,0.8,0.1c0.9,0,1.4-0.4,1.7-0.7L58.7,13.8z"/>
				<path class="st3" d="M52.9,12.7c-0.3,0-0.5,0.2-0.5,0.5c0,0.3,0.2,0.5,0.5,0.5c0.3,0,0.5-0.2,0.5-0.5
					C53.4,12.9,53.2,12.7,52.9,12.7z"/>
			</g>
			<g>
				<path class="st3" d="M47.7,68.3c0,0.6,0,0.6,0.4,0.7l0.3,0c0.1,0,0.1,0.2,0,0.2c-0.3,0-0.7,0-1.1,0c-0.5,0-0.9,0-1.2,0
					c-0.1,0-0.1-0.2,0-0.2l0.3,0c0.3,0,0.4-0.1,0.4-0.7V66c0-0.5,0-0.6-0.3-0.6l-0.3,0c-0.1,0-0.1-0.2,0-0.3c0.3,0,0.6-0.1,0.9-0.2
					c0.3-0.1,0.6-0.2,0.6-0.2c0,0,0.1,0,0.1,0.1c0,0.2,0,0.5,0,0.8V68.3z"/>
				<path class="st3" d="M52.5,66.5c0,0.9-0.4,1.6-1,2.2c-0.6,0.5-1.5,1-2.1,1c-0.1,0-0.1-0.2,0-0.2c1.4-0.3,2.1-1.5,2.1-2.8
					c0-0.5-0.2-1.6-0.8-1.6c-0.3,0-0.5,0.4-0.5,0.8c0,0.6,0.2,1.2,0.7,1.3c0.1,0,0.1,0,0.2,0c0,0,0,0.1,0,0.1
					c-0.1,0.1-0.4,0.2-0.7,0.2c-0.7,0-1.2-0.6-1.2-1.3c0-0.9,0.7-1.6,1.6-1.6C51.9,64.7,52.5,65.5,52.5,66.5z"/>
				<path class="st3" d="M55.1,68.3c0,0.6,0,0.6,0.4,0.7l0.3,0c0.1,0,0.1,0.2,0,0.2c-0.3,0-0.7,0-1.1,0c-0.5,0-0.9,0-1.2,0
					c-0.1,0-0.1-0.2,0-0.2l0.3,0c0.4,0,0.4-0.1,0.4-0.7V66c0-0.5,0-0.6-0.3-0.6l-0.3,0c-0.1,0-0.1-0.2,0-0.3c0.3,0,0.6-0.1,0.9-0.2
					c0.3-0.1,0.6-0.2,0.6-0.2c0,0,0.1,0,0.1,0.1c0,0.2,0,0.5,0,0.8V68.3z"/>
				<path class="st3" d="M59.5,64.6C59.6,64.6,59.6,64.6,59.5,64.6c0,0.4-0.1,0.6-0.3,0.8l-1.6,0.2c-0.1,0-0.1,0.1-0.2,0.2l0,0.2
					c0,0.2,0.1,0.2,0.2,0.2c0.4,0,1,0.1,1.5,0.3c0.4,0.2,0.8,0.6,0.8,1.2c0,0.7-0.4,1.2-1,1.5c-0.6,0.3-1.3,0.5-1.9,0.5
					c-0.1-0.1-0.1-0.3,0-0.3c0.5,0,1.1-0.1,1.4-0.3c0.4-0.2,0.7-0.6,0.7-1c0-1-1.1-1.1-1.8-1.2c-0.2,0-0.3-0.1-0.2-0.2l0.4-1.6
					c0-0.2,0.1-0.2,0.3-0.2L59.5,64.6z"/>
			</g>
			<g>
				<polygon class="st3" points="32.3,76 32.4,75 31.6,75.6 				"/>
				<path class="st3" d="M55.8,82.8c-0.1-0.3-0.3-0.4-0.6-0.3l-0.5,0.2l0.3,0.9l0.5-0.2C55.7,83.3,55.9,83.1,55.8,82.8L55.8,82.8z"
					/>
				<path class="st3" d="M46.7,80.8l-0.6-0.3L45.8,81l0.5,0.3c0.2,0.1,0.5,0.2,0.6,0l0,0C47,81.1,46.9,80.9,46.7,80.8z"/>
				<path class="st3" d="M46.2,81.8l-0.7-0.4L45.2,82l0.7,0.4c0.2,0.1,0.5,0.1,0.6,0l0,0C46.5,82.2,46.5,82,46.2,81.8z"/>
				<polygon class="st3" points="62.1,80.6 61.3,79.9 61.4,81 				"/>
				<path class="st3" d="M86.9,61.6c0,0-0.1-0.6-0.1-0.9c-0.5-2.2-1.7-4.2-1.7-4.2s-3.1,1-4,1.1c-0.9,0.1-2.1,0.1-3.2,0
					c-1.2-0.1-1.8,0.1-2.6,0.5c-0.8,0.5-1.2,1.3-1.1,2.3c0.1,0.9,0.9,1.7,1.6,1.8c0.7,0.1,1,0,1.7-0.3c0.7-0.3,2.1-1,1.9-1.5
					c-0.2-0.5-2.5-1.1-3.2-0.8c-0.8,0.2-0.6,1-0.6,1h1c0,0,0-0.1,0-0.1c0,0-0.6-0.1-0.6-0.1s0.1-0.3,0.4-0.4
					c0.3-0.1,1.2,0.1,1.1,0.7c0,0.6-1,1.2-1.6,1c-0.6-0.1-1-0.9-1.1-1.5c-0.1-0.5,0.5-1.5,1.3-1.7c0.8-0.2,0.9-0.3,2.5,0.2
					c1.2,0.4,1.6,2.2,1.7,2.8c0.1,0.5,0.1,0.9-0.2,2c-0.4,1.4-2.2,5.1-4.5,7.1c-2.2,1.9-4.6,3.6-6.9,4.2c-2.8,0.8-3.5,0.7-6.8,1.9
					c-3.3,1.2-4.7,3.9-8.8,3.8c0,0,0,0,0,0c0,0,0,0,0,0c-4.1,0.1-5.5-2.6-8.8-3.8c-3.3-1.2-4-1.1-6.8-1.9c-2.3-0.5-4.7-2.3-6.9-4.2
					c-2.2-1.9-4.1-5.6-4.5-7.1c-0.3-1.1-0.2-1.6-0.2-2c0.1-0.6,0.4-2.4,1.7-2.8c1.5-0.4,1.7-0.4,2.5-0.2c0.8,0.2,1.3,1.1,1.3,1.7
					c-0.1,0.5-0.5,1.3-1.1,1.5c-0.6,0.1-1.5-0.4-1.6-1c0-0.6,0.9-0.8,1.1-0.7c0.3,0.1,0.4,0.4,0.4,0.4s-0.6,0-0.6,0.1
					c0,0,0,0.1,0,0.1h1c0,0,0.2-0.8-0.6-1c-0.8-0.2-3,0.3-3.2,0.8c-0.2,0.5,1.2,1.2,1.9,1.5c0.7,0.3,0.9,0.4,1.7,0.3
					c0.7-0.1,1.5-0.8,1.6-1.8c0.1-0.9-0.3-1.8-1.1-2.3c-0.8-0.5-1.5-0.7-2.6-0.5c-1.2,0.1-2.4,0.1-3.2,0c-0.9-0.1-4-1.1-4-1.1
					s-1.3,2-1.7,4.2C19.1,61,19,61.6,19,61.6c-0.2,2.5,0.8,5,1.4,6.4c0.6,1.5,2.9,5,4.7,6.8c1.8,1.8,6.2,4.5,8.4,5.4
					c2.2,0.9,5.7,1.7,7.4,2.3c1.7,0.6,5.4,3.6,8.6,4.1c2.8,0.5,3.4,0.4,3.4,0.4c0,0,0.6,0,3.4-0.4c3.2-0.5,6.9-3.5,8.6-4.1
					c1.7-0.6,5.2-1.4,7.4-2.3c2.2-0.9,6.6-3.6,8.4-5.4c1.8-1.8,4.1-5.3,4.7-6.8C86.1,66.6,87.1,64.1,86.9,61.6z M22.2,67.3
					c-0.4-0.8,0-1.7,0.8-2l0,0c0.8-0.3,1.7,0,2,0.8c0.2,0.5,0.2,0.8,0.1,1.2l-0.6-0.2c0.1-0.3,0.1-0.5,0-0.8
					c-0.2-0.4-0.7-0.6-1.2-0.4l0,0c-0.5,0.2-0.7,0.7-0.5,1.2c0.1,0.2,0.2,0.4,0.4,0.5l0.4-0.2l-0.3-0.6l0.5-0.2l0.5,1.2l-1.2,0.5
					C22.8,68.1,22.4,67.8,22.2,67.3z M25.2,70.9l-0.5,0.3l-1.3-1.9l2.5-1.7l1.2,1.9l-0.5,0.3l-0.9-1.3l-0.5,0.3l0.8,1.2l-0.5,0.3
					l-0.8-1.2l-0.5,0.3L25.2,70.9z M27.8,71.3c-0.2-0.2-0.3-0.2-0.4-0.1l0,0c-0.1,0.1-0.1,0.3,0.1,0.7c0.3,0.6,0.4,1,0,1.3l0,0
					c-0.4,0.4-1,0.3-1.4-0.2c-0.3-0.3-0.5-0.8-0.5-1.3l0.6,0c0,0.3,0.1,0.6,0.3,0.9c0.2,0.2,0.4,0.3,0.5,0.1l0,0
					c0.1-0.1,0.1-0.2-0.1-0.7c-0.3-0.5-0.4-0.9,0-1.3l0,0c0.4-0.4,1-0.3,1.4,0.2c0.3,0.3,0.4,0.7,0.4,1.1l-0.6,0.1
					C28.1,71.8,28,71.5,27.8,71.3z M28.3,75l1.4-1.9L29,72.5l0.3-0.5l2,1.4L31,73.9l-0.7-0.5l-1.4,1.9L28.3,75z M32.7,77.7l-0.6-0.4
					l0.1-0.7L31.1,76l-0.6,0.4L30,76.1l2.6-1.9l0.5,0.3L32.7,77.7z M35.9,79.1l-0.2-3.2l0.7,0.2l0.1,2.2l1.4-1.8l0.7,0.2l-2,2.5
					L35.9,79.1z M39.7,77.7l-0.2,0.6l1.3,0.4l-0.2,0.6l-1.3-0.4l-0.2,0.6l1.5,0.5l-0.2,0.6l-2.2-0.6l0.8-2.8l2.1,0.6l-0.2,0.6
					L39.7,77.7z M43.6,81.8L43,81.5l-0.2-1.1l0,0l-0.5-0.2L41.9,81l-0.6-0.3l1.3-2.7l1.2,0.6c0.3,0.2,0.6,0.4,0.6,0.7
					c0.1,0.2,0,0.5-0.1,0.7l0,0c-0.2,0.4-0.6,0.6-1,0.5L43.6,81.8z M47,82.8L47,82.8c-0.3,0.5-0.8,0.5-1.4,0.1l-1.2-0.7l1.5-2.6
					l1.2,0.7c0.3,0.2,0.5,0.4,0.5,0.6c0,0.2,0,0.4-0.1,0.5l0,0c-0.2,0.3-0.4,0.4-0.7,0.4C47.1,82.1,47.2,82.4,47,82.8z M47.4,83.8
					l1.2-2.7l0.6,0.3L48,84.1L47.4,83.8z M50.6,83.1c0.6,0.3,0.9,0.5,0.8,1l0,0c-0.1,0.6-0.6,0.8-1.2,0.7c-0.4-0.1-0.9-0.3-1.2-0.7
					l0.5-0.4c0.2,0.3,0.5,0.5,0.8,0.5c0.3,0,0.4,0,0.5-0.2v0c0-0.2-0.1-0.3-0.5-0.5c-0.6-0.3-0.9-0.5-0.8-1.1l0,0
					c0.1-0.5,0.6-0.8,1.2-0.7c0.4,0.1,0.8,0.3,1,0.6l-0.4,0.4c-0.2-0.2-0.5-0.4-0.7-0.4c-0.2,0-0.4,0-0.4,0.2l0,0
					C50,82.8,50.2,82.9,50.6,83.1z M55.6,84l-0.5,0.2l0.3,0.8l-0.6,0.2l-0.9-2.8L55,82c0.7-0.2,1.2,0,1.4,0.6l0,0
					C56.6,83.3,56.2,83.8,55.6,84z M59.7,83.2l-1-0.6l0,0l-0.5,0.2l0.4,0.9L58,84l-1.3-2.7l1.2-0.6c0.3-0.2,0.6-0.2,0.9-0.1
					c0.2,0.1,0.4,0.2,0.5,0.5l0,0c0.2,0.4,0.1,0.8-0.2,1.1l1.1,0.6L59.7,83.2z M63.1,81.5L62.6,81l-1.1,0.6l0.1,0.7L61,82.6
					l-0.3-3.2l0.5-0.3l2.5,2L63.1,81.5z M64.4,80.7l-0.9-2.8l2.1-0.7l0.2,0.6l-1.5,0.5l0.2,0.6l1.3-0.4l0.2,0.6l-1.3,0.4l0.2,0.6
					l1.5-0.5l0.2,0.6L64.4,80.7z M69.1,79.4l-0.5,0.2l-2-2.5l0.7-0.2l1.3,1.8l0.1-2.2l0.7-0.2L69.1,79.4z M71.3,78.6L70,76l2-1
					l0.3,0.5l-1.4,0.7l0.3,0.5l1.3-0.6l0.3,0.5l-1.3,0.6l0.3,0.6l1.4-0.7l0.3,0.5L71.3,78.6z M76.2,75.9l-2.2-0.8l1,1.6L74.4,77
					l-1.6-2.5l0.5-0.3l2.1,0.8l-1-1.5l0.5-0.3l1.6,2.5L76.2,75.9z M77.5,74.9l-1.8-2.4l0.5-0.4l1.8,2.4L77.5,74.9z M79.1,73.7
					l-2.2-2l1.5-1.7l0.4,0.4l-1.1,1.2l0.5,0.4l0.9-1l0.4,0.4l-0.9,1.1l0.5,0.4l1.1-1.2l0.4,0.4L79.1,73.7z M82.4,69.5L80,69.6l1.6,1
					l-0.4,0.5l-2.5-1.6l0.3-0.5l2.3-0.1l-1.5-1l0.4-0.5l2.5,1.6L82.4,69.5z M83.6,67.2l-2.2-0.9l-0.3,0.8l-0.6-0.2l0.9-2.3l0.6,0.2
					l-0.3,0.8l2.2,0.9L83.6,67.2z"/>
				<path class="st3" d="M43.6,79.2L43,78.9l-0.4,0.8l0.6,0.3c0.3,0.1,0.5,0.1,0.6-0.2l0,0C43.9,79.5,43.8,79.3,43.6,79.2z"/>
				<path class="st3" d="M58.8,81.5c-0.1-0.2-0.4-0.3-0.6-0.2l-0.6,0.3l0.4,0.8l0.6-0.3C58.8,81.9,58.9,81.7,58.8,81.5L58.8,81.5z"
					/>
			</g>
		</g>
	</g>
</g>
<g id="Layer_4">
	<g>
		<path class="st4" d="M222.4,81.7l7.5-16.6c1.5-3.3,2-4,3.5-4.4v-1.1h-7.9v1.1c2.6,0.6,2.9,1.9,1.7,4.7l-3,7.2l-3.8-8.5
			c-0.8-1.9-0.7-3,2.1-3.3v-1.2H212v1.2c1.2,0.3,1.7,0.8,2.8,3.1l6.7,14.4l-1.1,2.4c-0.6,1.4-1.2,2.4-1.9,3
			c-0.5-1.6-1.4-2.5-2.8-2.5c-1.4,0-2.7,1-2.7,2.8c0,1.9,1.5,3.3,3.3,3.3C218.8,87.2,220.4,85.9,222.4,81.7 M211.7,76.6l-0.6-1.3
			c-1.1,0.5-2,0.7-2.9,0.7c-1.9,0-2.4-1-2.4-2.3v-12h5.1v-2.3h-5.1v-3.7h-0.7l-7.2,4.7v1.3h2.9v13.1c0,2.6,1.5,4,4.4,4
			C207.6,78.8,209.8,78.1,211.7,76.6 M196.5,77.2c-2.5-0.4-2.8-0.9-2.8-3.1V58.8h-2l-5.9,3.8v0.9h2.8v10.6c0,2.2-0.4,2.7-2.8,3.1
			v1.2h10.7V77.2z M190.9,55.8c1.7,0,3-1.4,3-3.1c0-1.5-1.2-2.8-2.7-2.8c-1.8,0-3.1,1.4-3.1,3C188.1,54.6,189.3,55.8,190.9,55.8
			 M183.9,72.6c0-3.7-3.1-4.9-5.9-5.8c-2.8-0.9-4.8-1.5-4.8-3.6c0-1.1,0.8-2.2,2.5-2.2c2,0,3.8,1.2,6,3.7l1-0.5l-1.5-5h-0.6
			l-0.7,0.6c-1.1-0.5-2.4-0.8-3.8-0.8c-4.2,0-7,2.4-7,6.1c0,3.7,3.1,4.8,5.9,5.7c2.8,1,4.8,1.5,4.8,3.6c0,1.3-1,2.3-2.9,2.3
			c-2.7,0-4.7-1.8-7.1-4.9l-1.1,0.4l1.6,6.2h0.7l1.2-0.8c1.3,0.6,2.8,1,4.4,1C180.5,78.8,183.9,76.4,183.9,72.6 M163.1,77.2
			c-2.6-0.4-3-1-3-3.4v-8.2c0.8-1.4,1.6-2.5,2.4-3.2c0,1.6,1.1,2.6,2.4,2.6c1.4,0,2.7-1.1,2.7-3.2c0-1.8-1-2.8-2.8-2.8
			c-2,0-3.5,1.6-4.9,4v-4h-1.8l-5.8,3.8v0.9h2.8v10.6c0,2.2-0.4,2.8-2.6,3.1v1.2h10.6V77.2z M138.1,66.3c0-3.2,1.4-5.2,4-5.2
			c1.8,0,3,1.3,3.5,3.9l-7.4,2.6C138.1,67.2,138.1,66.8,138.1,66.3 M150.6,74.8l-1.1-0.8c-1.1,1.2-2.7,2.1-4.6,2.1
			c-3.7,0-5.7-2.8-6.5-6.4l12-4c-0.2-4.2-3.4-6.5-7.3-6.5c-5.5,0-9.6,4.5-9.6,10c0,5.5,3.5,9.7,9.7,9.7
			C146.9,78.8,149.2,77.2,150.6,74.8 M129.7,65c1.5-3.3,2-4,3.5-4.4v-1.1h-7.9v1.1c2.6,0.6,2.9,1.9,1.7,4.7l-3,7.2l-3.8-8.5
			c-0.8-1.9-0.7-3,2.1-3.3v-1.2h-10.5v1.2c1.2,0.3,1.8,0.8,2.8,3.1l6.8,14.8h2.1L129.7,65z M111.4,77.2c-2.5-0.4-2.8-0.9-2.8-3.1
			V58.8h-2l-5.9,3.8v0.9h2.8v10.6c0,2.2-0.4,2.7-2.8,3.1v1.2h10.7V77.2z M105.7,55.8c1.7,0,3-1.4,3-3.1c0-1.5-1.2-2.8-2.7-2.8
			c-1.8,0-3.1,1.4-3.1,3C103,54.6,104.1,55.8,105.7,55.8 M85.6,77.2c-2.3-0.3-2.6-0.9-2.6-3.1v-9.2c2-1.8,3.6-2.7,5.1-2.7
			c2,0,2.5,1,2.5,2.8v9.1c0,2.2-0.4,2.8-2.6,3.1v1.2h10.3v-1.2c-2.3-0.3-2.6-0.9-2.6-3.1v-9.5c0-3.2-1.4-5.5-5.4-5.5
			c-2.5,0-4.9,1.5-7.3,3.6v-3.8H81l-5.8,3.8v0.9H78v10.6c0,2.2-0.4,2.8-2.6,3.1v1.2h10.3V77.2z M42.1,53.7v12
			c0,7.7,4,13.1,14.2,13.1s14.2-5.4,14.2-13v-9.6c0-4.7,1.3-5.9,3.6-6.5v-1.2h-9.7v1.2c2.3,0.6,3.6,1.8,3.6,6.5v9.6
			c0,6.7-3.6,9.9-10.3,9.9c-6.7,0-10.3-3.1-10.3-9.9V53.7c0-3,0.9-3.6,3.4-3.9v-1.3H38.8v1.3C41.3,50.2,42.1,50.7,42.1,53.7"/>
		<path class="st4" d="M272.5,34c-2.3-0.3-2.6-0.9-2.6-3.1v-9.2c2-1.8,3.6-2.7,5.1-2.7c2,0,2.5,1,2.5,2.8v9.1c0,2.2-0.4,2.8-2.6,3.1
			v1.2h10.3V34c-2.3-0.3-2.6-0.9-2.6-3.1v-9.5c0-3.2-1.4-5.5-5.4-5.5c-2.5,0-4.9,1.5-7.3,3.6v-3.8H268l-5.8,3.8v0.9h2.8v10.6
			c0,2.2-0.4,2.8-2.6,3.1v1.2h10.3V34z M256.7,34c-2.6-0.4-3-1-3-3.4v-8.2c0.8-1.4,1.6-2.5,2.4-3.2c0,1.6,1.1,2.6,2.4,2.6
			s2.7-1.1,2.7-3.2c0-1.8-1-2.8-2.8-2.8c-2,0-3.5,1.6-4.9,4v-4h-1.8l-5.8,3.8v0.9h2.8v10.6c0,2.2-0.4,2.8-2.6,3.1v1.2h10.6V34z
			 M231.7,23.1c0-3.2,1.4-5.2,4-5.2c1.8,0,3,1.3,3.5,3.9l-7.4,2.6C231.7,24,231.7,23.5,231.7,23.1 M244.2,31.6l-1.1-0.8
			c-1.1,1.2-2.7,2.1-4.6,2.1c-3.7,0-5.7-2.8-6.5-6.4l12-4c-0.2-4.2-3.4-6.5-7.3-6.5c-5.5,0-9.6,4.5-9.6,10c0,5.5,3.5,9.7,9.7,9.7
			C240.5,35.6,242.8,33.9,244.2,31.6 M225.7,33.4l-0.6-1.3c-1.1,0.5-2,0.7-2.9,0.7c-1.9,0-2.4-1-2.4-2.3v-12h5.1v-2.3h-5.1v-3.7
			h-0.7l-7.2,4.7v1.3h2.9v13.1c0,2.6,1.5,4,4.4,4C221.6,35.6,223.8,34.8,225.7,33.4 M210.6,29.3c0-3.7-3.1-4.9-5.9-5.8
			c-2.8-0.9-4.8-1.5-4.8-3.6c0-1.1,0.8-2.2,2.5-2.2c2,0,3.8,1.2,6,3.7l1-0.5l-1.5-5h-0.6l-0.7,0.6c-1.1-0.5-2.4-0.8-3.8-0.8
			c-4.2,0-7,2.4-7,6.1c0,3.7,3.1,4.8,5.9,5.7c2.8,1,4.8,1.5,4.8,3.6c0,1.3-1,2.3-2.9,2.3c-2.7,0-4.7-1.8-7.1-4.9l-1.1,0.4l1.6,6.2
			h0.7l1.2-0.8c1.3,0.6,2.8,1,4.4,1C207.3,35.6,210.6,33.2,210.6,29.3 M179.9,30.1c0-2,0.9-3,5.6-4.3v5.8c-1.1,0.9-2.1,1.3-3.1,1.3
			C180.8,32.9,179.9,32,179.9,30.1 M188.7,35.4c1.7,0,3.6-0.8,4.8-1.6l-0.4-1.1c-2,0.4-2.7,0.1-2.7-1.2V20.8c0-3.2-1.4-4.9-5.9-4.9
			c-5.1,0-8.8,2.7-8.8,5.3c0,1.2,0.8,2.3,2.3,2.3c1.6,0,2.4-1.1,2.7-2.2c0.2-1.2-0.2-2.2-0.8-2.7c1-0.5,2-0.7,3-0.7
			c1.7,0,2.6,0.6,2.6,2.2v4c-7.1,1.8-10.4,3.3-10.4,7.1c0,2.9,1.9,4.5,4.8,4.5c1.9,0,4-0.8,5.9-2.2C186,34.7,187,35.4,188.7,35.4
			 M160.4,23.1c0-3.2,1.4-5.2,4-5.2c1.8,0,3,1.3,3.5,3.9l-7.4,2.6C160.4,24,160.4,23.5,160.4,23.1 M172.9,31.6l-1.1-0.8
			c-1.1,1.2-2.7,2.1-4.6,2.1c-3.7,0-5.7-2.8-6.5-6.4l12-4c-0.2-4.2-3.4-6.5-7.3-6.5c-5.5,0-9.6,4.5-9.6,10c0,5.5,3.5,9.7,9.7,9.7
			C169.2,35.6,171.5,33.9,172.9,31.6 M141.1,34c-2.3-0.3-2.6-0.9-2.6-3.1v-9.3c1.9-1.8,3.4-2.6,5.1-2.6c2,0,2.5,1,2.5,2.8v9.1
			c0,2.2-0.4,2.8-2.6,3.1v1.2h10.3V34c-2.3-0.3-2.6-0.9-2.6-3.1v-9.5c0-3.2-1.4-5.5-5.4-5.5c-2.4,0-4.8,1.4-7.2,3.4V3.5H137
			l-6.4,4.2v0.9h2.9v22.3c0,2.2-0.4,2.8-2.6,3.1v1.2h10.3V34z M129.6,33.4l-0.6-1.3c-1.1,0.5-2,0.7-2.9,0.7c-1.9,0-2.4-1-2.4-2.3
			v-12h5.1v-2.3h-5.1v-3.7h-0.7l-7.2,4.7v1.3h2.9v13.1c0,2.6,1.5,4,4.4,4C125.5,35.6,127.7,34.8,129.6,33.4 M110.1,34
			c-2.6-0.4-3-1-3-3.4v-8.2c0.8-1.4,1.6-2.5,2.4-3.2c0,1.6,1.1,2.6,2.4,2.6s2.7-1.1,2.7-3.2c0-1.8-1-2.8-2.8-2.8c-2,0-3.5,1.6-4.9,4
			v-4h-1.8l-5.8,3.8v0.9h2.8v10.6c0,2.2-0.4,2.8-2.6,3.1v1.2h10.6V34z M81.2,23.7c0-3.6,1.6-5.9,4.8-5.9c4.2,0,5.5,5.2,5.5,9.9
			c0,3.6-1.6,5.9-4.8,5.9C82.5,33.6,81.2,28.4,81.2,23.7 M96.5,25.5c0-5.2-3.5-9.6-9.9-9.6c-6.5,0-10.3,4.7-10.3,10.1
			c0,5.2,3.5,9.6,9.9,9.6C92.7,35.6,96.5,30.9,96.5,25.5 M70.5,13c0-4.7,1.3-5.9,3.6-6.5V5.2h-9.7v1.2C66.7,7.1,68,8.3,68,13V27
			L47.7,6.5c-1.1-1.1-1.6-1.2-2.3-1.2h-7.5v1.2c1.6,0.2,2.6,0.8,4.5,2.6c0.6,0.6,1.2,1.2,1.2,2.4v16c0,4.7-1.3,5.9-3.6,6.5v1.2h9.7
			V34c-2.3-0.6-3.6-1.8-3.6-6.5V12.4l22.9,23h1.6V13z"/>
	</g>
</g>
<g id="Layer_3">
</g>
</svg>
